<svg width="35" height="28" viewBox="0 0 35 28" fill="none" xmlns="http://www.w3.org/2000/svg">
<g clip-path="url(#clip0_1026_8611)">
<path d="M5.9917 10.3614L11.987 1.03442L17.4964 10.3614" stroke="black" stroke-width="0.5" stroke-linecap="round" stroke-linejoin="round"/>
<path d="M11.9871 1.03428H15.1491C16.2924 -0.164422 18.6469 -0.164422 19.7902 1.03428H22.9808L29.0101 10.3631" stroke="black" stroke-width="0.5" stroke-linecap="round" stroke-linejoin="round"/>
<path d="M17.4964 11.1689C18.2502 11.1689 18.8613 10.8074 18.8613 10.3614C18.8613 9.91547 18.2502 9.55396 17.4964 9.55396C16.7427 9.55396 16.1316 9.91547 16.1316 10.3614C16.1316 10.8074 16.7427 11.1689 17.4964 11.1689Z" fill="black"/>
<path d="M35 10.3613H0V12.0013H35V10.3613Z" fill="black"/>
<path d="M0.207275 10.7848L5.05747 27.7131H16.7319H18.2611H29.9355L34.8196 10.6669L0.207275 10.7848Z" stroke="black" stroke-width="0.5" stroke-linecap="round" stroke-linejoin="round"/>
<path d="M17.5 12.0013V27.7131" stroke="black" stroke-width="0.0993263" stroke-linecap="round" stroke-linejoin="round"/>
<path d="M11.7458 12.0013L12.7284 27.7131" stroke="black" stroke-width="0.0993263" stroke-linecap="round" stroke-linejoin="round"/>
<path d="M5.9917 12.0013L8.74818 27.7131" stroke="black" stroke-width="0.0993263" stroke-linecap="round" stroke-linejoin="round"/>
<path d="M23.2542 12.0013L22.2716 27.7131" stroke="black" stroke-width="0.0993263" stroke-linecap="round" stroke-linejoin="round"/>
<path d="M29.0101 12.0013L26.2518 27.7131" stroke="black" stroke-width="0.0993263" stroke-linecap="round" stroke-linejoin="round"/>
<path d="M1.67395 15.903H33.319" stroke="black" stroke-width="0.0993263" stroke-linecap="round" stroke-linejoin="round"/>
<path d="M3.35315 21.766H31.6397" stroke="black" stroke-width="0.0993263" stroke-linecap="round" stroke-linejoin="round"/>
<path d="M29.0101 11.1689C29.7639 11.1689 30.3749 10.8074 30.3749 10.3614C30.3749 9.91547 29.7639 9.55396 29.0101 9.55396C28.2563 9.55396 27.6453 9.91547 27.6453 10.3614C27.6453 10.8074 28.2563 11.1689 29.0101 11.1689Z" fill="black"/>
</g>
<defs>
<clipPath id="clip0_1026_8611">
<rect width="35" height="27.8471" fill="white"/>
</clipPath>
</defs>
</svg>
