<svg width="86" height="63" viewBox="0 0 86 63" fill="none" xmlns="http://www.w3.org/2000/svg">
<g clip-path="url(#clip0_1118_45245)">
<path d="M28.8556 45.4406H16.5637L16.8002 42.7639C16.8475 42.2265 16.8922 41.5313 16.9343 40.6897C13.7136 42.985 10.2091 43.4279 5.92373 43.9705C5.50921 44.0225 5.08523 44.0762 4.64921 44.1334L2.87245 44.3657L0.924554 40.1141L2.95329 39.0203C4.60019 38.1327 6.25225 36.9105 7.48549 35.6675L7.53451 35.6198C9.05499 34.1714 10.314 32.4431 11.3168 30.7806H2.83977L0.655374 25.2782H4.49957L4.53225 24.798C4.56493 24.3178 4.59589 23.8029 4.62341 23.2672C4.81691 19.469 4.83411 14.972 4.83583 11.9374C4.68791 11.8109 4.47549 11.6583 4.17277 11.4919L0.544434 9.49654L4.03259 7.25935C5.24949 6.47924 6.43113 5.41743 7.35907 4.27066L9.03349 2.20164L10.9418 4.0531C11.6118 4.70319 13.3438 5.64279 14.7362 6.39777C14.7895 6.42637 14.8428 6.45584 14.8961 6.48444H30.3486C31.5354 5.63326 32.484 4.78034 32.8968 4.18399L34.5222 1.83325L36.581 3.80953C37.9639 5.13745 39.708 6.39863 41.3652 7.27062L45.144 9.25817L41.5295 11.5352C41.1648 11.7649 40.8974 11.9816 40.6411 12.2261C40.5396 17.289 40.6892 22.5452 40.74 24.108V24.1279C41.4813 24.791 42.2433 25.3969 42.8272 25.8234L45.7168 27.9314L42.7188 29.8808C41.7212 30.5292 39.9531 32.1241 39.6306 32.5029L39.2315 33.0143C40.1724 33.3653 41.2147 33.7172 42.3869 34.0822L46.2534 35.2853L43.3922 38.1691C41.7961 39.7787 40.451 41.6128 39.3158 43.206L38.3285 44.592L36.6954 44.1447C33.1316 43.1696 30.4982 41.3389 28.6028 39.8532L28.5813 39.8368C28.5667 39.8255 28.5521 39.8134 28.5374 39.8021C28.5736 41.1248 28.6166 42.1433 28.6639 42.8021L28.8548 45.4397H28.8556V45.4406ZM21.8251 40.5233H23.6767C23.6139 38.4898 23.5787 35.9839 23.5589 33.9209L23.5236 30.1955H23.4815V26.2438L23.1728 25.8633H23.4815V22.6293C23.4815 22.2947 23.1143 21.5484 22.7703 20.9009C22.4581 21.557 22.1476 22.273 22.1322 22.6605V23.2534C22.1322 24.3628 22.1322 25.5009 22.115 26.659L22.1786 26.5714L22.0152 34.3786C21.9756 36.2543 21.9146 38.5609 21.8243 40.5241H21.8251V40.5233ZM31.6085 35.9813C32.8366 36.9434 34.4319 38.0781 36.4142 38.8746C36.7298 38.449 37.06 38.0148 37.4066 37.577C35.715 36.9408 34.2917 36.2977 32.9991 35.5904L32.9716 35.5748C30.862 34.3855 28.54 32.3919 26.6953 30.1955H25.6487L27.668 32.1033C28.1685 32.5765 28.6501 33.0862 29.1154 33.5803C29.8756 34.3864 30.6616 35.2202 31.6094 35.9813H31.6085ZM17.1803 30.1955C16.1044 32.4223 14.516 35.1882 12.3669 37.6438C13.3498 37.2269 14.2374 36.6678 15.0931 35.8781C16.1758 34.851 16.8836 33.8741 17.569 32.9302L19.5513 30.1963H17.1803V30.1955ZM9.54347 22.5105H11.1809V20.7951H11.2024L11.328 10.1319C10.7165 9.79385 10.1162 9.4506 9.55723 9.09955C9.42479 9.22783 9.28977 9.35352 9.15303 9.47834C9.24505 9.61442 9.32933 9.75397 9.40759 9.89526L9.71461 10.4526V11.0897C9.71461 13.8964 9.71461 18.4487 9.54261 22.5114L9.54347 22.5105ZM34.247 21.7304H35.7941C35.7348 19.052 35.6823 14.9772 35.7855 11.1391L35.8105 10.2056L36.1725 9.81552C35.7993 9.54941 35.4312 9.27291 35.0717 8.9886C34.8378 9.1975 34.597 9.40032 34.3562 9.59535L34.2788 16.1405L34.2461 21.7304H34.247ZM27.8314 20.1711H29.3768L29.3863 18.577H27.0703C27.3412 19.0858 27.6095 19.6172 27.8314 20.1711ZM16.0889 20.1711H17.7668C17.9732 19.6189 18.2209 19.0858 18.4668 18.577H16.1087L16.0898 20.1711H16.0889ZM26.8923 13.6597H29.4301L29.4499 11.9877H27.8795C27.6749 12.3682 27.4452 12.7461 27.2113 13.131C27.1064 13.3035 26.9989 13.4803 26.8931 13.6597H26.8923ZM16.1663 13.6597H18.6818C18.5683 13.4378 18.4505 13.2168 18.3327 12.9966C18.1512 12.6569 17.9732 12.3223 17.8124 11.9877H16.1853L16.1655 13.6597H16.1663Z" fill="black"/>
<path d="M78.0803 45.7197L76.3414 45.451C71.5099 44.7056 68.1378 43.0457 66.1607 41.7845L66.1117 41.7524C65.1373 41.098 64.3237 40.4106 63.6013 39.7484C59.8208 43.6637 53.2762 44.8833 44.3262 45.4354L42.5417 45.5455L40.7296 40.7946L43.3638 40.0968C50.1638 38.2948 53.1395 35.3529 54.5481 32.6121H42.3808L40.5602 27.1097H55.9921C55.9989 27.0075 56.005 26.9052 56.0101 26.8029H45.8234L44.0054 21.3005H56.158V21.1878H45.9404L45.5147 19.9015H42.2811L42.6492 17.1174C42.6758 16.9172 42.7008 16.7334 42.724 16.5626C42.8599 15.5676 42.914 15.1714 42.8616 14.3601C42.7825 14.3046 42.6775 14.2353 42.5365 14.146L39.2186 12.0553L42.5417 9.9733C43.725 9.23219 44.7226 8.32727 45.6824 7.12676L47.3534 5.03607L49.2729 6.89706C49.9041 7.50902 51.3979 8.48936 52.7172 9.17412H54.1198L49.7657 7.1623L55.7788 5.23456C57.6923 4.62087 59.0872 4.02799 60.1682 3.36836L61.3825 2.62726L62.6218 3.32502C63.6916 3.92831 65.4443 4.75176 67.7173 5.25276L73.4879 6.52521L75.029 4.45445L77.0139 6.66996C77.9324 7.69538 79.9861 9.0363 81.6364 10.1146L85.5116 12.6456L81.2528 14.4451C81.0009 14.5517 80.8873 14.6626 80.8555 14.7094L80.8521 14.7311C80.6689 15.7262 80.2441 16.4959 79.6937 17.0983L81.8892 18.7903L78.9558 20.6816C78.6539 20.8766 78.2815 21.1324 77.8937 21.4089C78.2317 21.7157 78.5481 21.9827 78.8345 22.1907L81.7379 24.2979L79.1828 25.9586C80.0041 26.7188 80.8005 27.3914 81.4248 27.843L84.3316 29.9493L81.3234 31.9057C80.3946 32.5098 79.0616 33.5309 78.2059 34.376C79.059 34.5581 79.9482 34.7184 80.8607 34.8545L85.1323 35.4907L82.3872 38.8504C81.4171 40.0379 79.6094 42.7119 78.8844 44.1395L78.0829 45.7171L78.0803 45.7197ZM68.794 37.6456C70.1554 38.5097 72.3484 39.6062 75.453 40.2884C75.711 39.8654 75.9905 39.4251 76.2777 38.9874C74.0495 38.4629 72.0543 37.8007 70.3902 37.0284L70.3618 37.0145C68.8757 36.3012 65.4564 34.4722 63.7424 32.0288H62.3466L62.5203 29.841L61.3825 27.6965H62.6553C62.6734 27.2736 62.6889 26.8324 62.7052 26.3704V26.2195H62.6915L62.7112 25.2825C62.713 25.1482 62.7164 25.013 62.7198 24.8786L62.7448 23.7084C62.768 22.6094 62.7912 21.5787 62.8222 20.6053H62.8127L62.8411 20.0393C62.8592 19.547 62.8789 19.0703 62.9022 18.6057L63.0208 16.2731H63.0527C63.069 16.085 63.0879 15.8995 63.1094 15.7158L63.1215 15.6109C62.5521 15.3595 62.0112 15.0943 61.4918 14.8247C61.3215 14.9079 61.1469 14.9911 60.9689 15.0735V16.0027C60.9689 16.3442 60.9783 16.6814 60.9878 17.0368C60.9973 17.3956 61.0076 17.7675 61.0076 18.1471V18.7027C61.0317 19.7524 61.0411 20.8064 61.0342 21.8882H61.1314L61.0041 24.4695C60.9964 24.6168 60.9895 24.7659 60.9826 24.9159L60.9534 26.2213H60.9207C60.9104 26.4492 60.8992 26.6807 60.8889 26.9147C60.8777 27.1765 60.8622 27.4374 60.8407 27.6983H61.0428L60.3669 30.7008C60.3333 30.8508 60.2972 31.0007 60.2602 31.149L60.0702 32.0305H60.0177C59.2549 34.5589 58.0019 36.7441 56.244 38.6016C59.0132 37.6265 60.3445 36.3662 61.1546 34.8926L62.6459 32.1787L64.9266 34.2616C65.2663 34.5719 65.6008 34.8935 65.9242 35.2038C66.7911 36.0377 67.6881 36.8993 68.7957 37.6473L68.794 37.6456ZM67.5608 27.1115H69.8286C69.6919 27.0048 69.556 26.9017 69.4227 26.8046H67.5711C67.5677 26.9078 67.5634 27.01 67.5599 27.1115H67.5608ZM67.6812 21.3022H68.9437C68.9849 21.265 69.0254 21.2268 69.0649 21.1896H67.6838C67.6829 21.2268 67.682 21.2641 67.6803 21.3022H67.6812ZM47.7584 14.9851H48.8171V14.9365L47.755 14.6488C47.7576 14.7649 47.7584 14.8767 47.7584 14.9851ZM47.4781 12.3604L47.5942 12.5546L47.6492 13.1007C47.7111 13.7092 47.7447 14.198 47.755 14.6306L48.8179 14.2656V12.6031C48.4972 12.4064 48.1781 12.2018 47.8694 11.9938C47.7404 12.1186 47.6096 12.2408 47.4781 12.3613V12.3604ZM74.9387 13.6355C74.9275 13.8643 74.9138 14.0932 74.8974 14.3211C75.656 14.0828 75.957 13.8921 76.0559 13.8166C76.1333 13.3772 76.2726 12.9542 76.4687 12.5563C76.1204 12.311 75.7875 12.0683 75.4728 11.8291C75.3051 12.0068 75.1382 12.1767 74.9723 12.337C74.9714 12.747 74.9602 13.1666 74.9404 13.5887L75.0058 13.6025L74.9379 13.6355H74.9387ZM60.9981 9.79994H61.1211L61.5038 11.3636L61.8951 9.79994H62.8987V8.89241C62.3758 8.68178 61.8968 8.46769 61.4642 8.25879C61.3189 8.3316 61.1701 8.40441 61.0188 8.47635L60.9981 9.79994ZM69.636 9.17585H71.1633C71.6131 8.80487 72.0809 8.3186 72.6004 7.68237L69.636 9.17585Z" fill="black"/>
<path d="M75.4995 20.1867L73.5464 18.1627L72.0423 19.5427L68.7941 15.8536L73.7305 11.3264L73.7408 11.3368L73.7537 11.3246L74.6575 12.2608L75.4049 13.0149L79.0272 16.7681L75.4995 20.1867Z" fill="black"/>
<path d="M74.2877 24.6862L73.2436 23.679L72.5617 24.3429L69.1466 20.8099L73.2402 16.8244L74.9353 18.4852L77.6546 21.1072L74.2877 24.6862Z" fill="black"/>
<path d="M26.5964 22.7576L22.631 18.7608V9.23132L29.4602 16.1136V19.2297L26.5964 22.7576Z" fill="black"/>
<path d="M18.7205 23.1034L15.8575 19.5756V16.4595L22.6859 9.57715V19.1066L18.7205 23.1034Z" fill="black"/>
<path d="M24.6666 12.1975L20.026 10.8436L20.2212 9.46883L21.2979 5.63329L19.1127 3.1248L25.4818 0.394409L30.4552 7.28539L26.642 7.75865L24.6666 12.1975Z" fill="black"/>
<path d="M28.4807 45.0896H16.9447L17.1468 42.7952C17.2078 42.1035 17.2646 41.15 17.3162 39.9625C14.0017 42.5932 10.3751 43.0526 5.87989 43.6221C5.46537 43.6741 5.04053 43.7287 4.60451 43.7851L3.08145 43.9836L1.37865 40.2668L3.11757 39.3298C4.79371 38.4266 6.47587 37.1819 7.73147 35.9164L7.77361 35.8756C9.48329 34.2469 10.8645 32.2741 11.9283 30.4296H3.07543L1.17053 25.6302H4.82553L4.88143 24.8232C4.91497 24.3413 4.94507 23.8238 4.97259 23.2864C5.17039 19.4144 5.18501 14.823 5.18587 11.7841C5.01559 11.6177 4.74985 11.4088 4.34135 11.1834L1.23073 9.47235L4.22009 7.55501C5.46709 6.75496 6.67797 5.66714 7.62913 4.49177L9.06447 2.71832L10.7002 4.30541C11.4045 4.98931 13.1607 5.94105 14.5711 6.70642C14.6502 6.74976 14.7293 6.79223 14.8084 6.83471H30.4596C31.7203 5.93845 32.7394 5.02572 33.1832 4.38429L34.5764 2.36987L36.3411 4.06358C37.7463 5.41317 39.5197 6.69515 41.2053 7.58188L44.444 9.28512L41.3463 11.2371C40.9043 11.5154 40.6007 11.7719 40.2971 12.0736C40.1887 17.1894 40.3418 22.5392 40.3934 24.1194L40.3986 24.2892C41.1846 25.0009 42.0042 25.6544 42.6243 26.1069L45.1011 27.9142L42.5314 29.5845C41.4805 30.2684 39.6667 31.9092 39.3606 32.281L38.6648 33.173C39.7269 33.583 40.9189 33.9912 42.2854 34.4168L45.599 35.4483L43.1463 37.9204C41.5312 39.5482 40.1767 41.3962 39.0338 43.0015L38.1875 44.189L36.7874 43.8059C33.2838 42.8463 30.6875 41.0417 28.8178 39.5759L28.7998 39.5621C28.5822 39.3879 28.3732 39.2119 28.1711 39.0359C28.2115 40.7461 28.2614 42.0411 28.3182 42.8281L28.4824 45.0896H28.4807ZM21.4597 40.8753H24.0371C23.9666 38.788 23.9287 36.1045 23.9081 33.9184L23.8694 29.8454H23.8307V22.6302C23.8307 22.1197 23.2476 21.0449 22.8219 20.2604C22.7995 20.2188 22.7763 20.1772 22.754 20.1356C22.7411 20.1625 22.7282 20.1893 22.7144 20.2162C22.3076 21.0492 21.8028 22.0841 21.7839 22.6553V23.2543C21.7839 24.7157 21.7839 26.2274 21.7452 27.7659L21.8071 27.6801L21.6669 34.3717C21.6256 36.3645 21.5586 38.8426 21.4588 40.8753H21.4597ZM31.3927 36.2579C32.6921 37.2755 34.3966 38.4838 36.5346 39.2994C36.9861 38.6858 37.4668 38.053 37.982 37.4168C36.1037 36.7311 34.5566 36.0429 33.1643 35.2827L33.1402 35.2697C31.0254 34.077 28.6905 32.06 26.8562 29.8454H24.7664L27.4289 32.3608C27.9226 32.8271 28.3784 33.3108 28.8617 33.8231C29.6305 34.6387 30.426 35.4812 31.3918 36.2579H31.3927ZM16.9619 29.8445C15.7475 32.3937 13.8366 35.7109 11.1586 38.4344C12.7298 37.975 14.0766 37.2937 15.3304 36.1357C16.4381 35.0851 17.1562 34.0952 17.8502 33.1374L20.2376 29.8445H16.9619ZM35.1706 31.5841C35.2721 31.6396 35.3745 31.6942 35.4785 31.7488L35.1706 31.5841ZM37.0377 27.6247C37.2441 27.7789 37.4522 27.9384 37.656 28.1014C37.7721 27.9982 37.8908 27.8942 38.0104 27.7902C37.8126 27.6168 37.6139 27.4392 37.4178 27.258C37.2914 27.3811 37.1641 27.5033 37.0368 27.6247H37.0377ZM28.0129 25.6302H29.6727V25.3615H28.0129V25.6302ZM15.7114 25.6302H17.5974C17.5974 25.54 17.5991 25.4507 17.5991 25.3615H15.7114V25.6302ZM9.17885 22.8616H11.5258L11.5284 22.6163V21.1454H11.5456L11.678 9.92394C10.9229 9.50875 10.1808 9.08576 9.51081 8.6541C9.24421 8.91847 8.96815 9.1759 8.68607 9.42467C8.84173 9.63097 8.98105 9.8442 9.10231 10.0644L9.36547 10.542V11.088C9.36547 13.9771 9.36547 18.7158 9.17799 22.8608H9.17885V22.8616ZM33.8961 22.0824H36.1502C36.0874 19.4231 36.0255 15.1559 36.133 11.1496L36.1545 10.3495L36.7023 9.76099C36.139 9.3718 35.5877 8.95921 35.0554 8.52841C34.7131 8.84392 34.3579 9.1447 34.0096 9.42294L33.9305 16.138L33.8953 22.0833H33.8961V22.0824ZM27.5923 20.5222H29.7234L29.7372 18.2261H26.4846C26.4846 18.2261 26.4889 18.2339 26.4907 18.2373C26.8777 18.9516 27.293 19.7169 27.5923 20.5222ZM15.7364 20.5222H18.0111C18.2751 19.7629 18.6303 19.0348 18.9622 18.3552C18.9829 18.3127 19.0035 18.2703 19.025 18.2261H15.763L15.7355 20.5222H15.7364ZM26.2894 14.0109H29.7741L29.8017 11.6367H27.668C27.4453 12.0727 27.1821 12.5052 26.9129 12.9482C26.7048 13.2906 26.4864 13.6494 26.2886 14.0117H26.2894V14.0109ZM15.8138 14.0109H19.2434C19.0594 13.6156 18.8487 13.2203 18.6406 12.8303C18.4256 12.4272 18.2149 12.032 18.0343 11.6367H15.8421L15.8146 14.0109H15.8138ZM22.4392 11.0516C22.5493 11.2588 22.6637 11.4772 22.778 11.7052C22.907 11.4772 23.0369 11.2588 23.1625 11.0516H22.4392Z" fill="white"/>
<path d="M77.8843 45.3349L76.3939 45.1052C71.6218 44.3684 68.2961 42.7319 66.3465 41.489L66.3044 41.4612C65.2345 40.7427 64.3574 39.9799 63.5825 39.2561C59.9146 43.2893 53.3562 44.5279 44.3047 45.087L42.7748 45.1815L41.1941 41.0374L43.4516 40.4393C50.8046 38.4907 53.7751 35.216 55.1063 32.2637H42.6312L41.0428 27.4643H56.312C56.3353 27.2164 56.3516 26.9668 56.3619 26.7154C56.3662 26.6279 56.3697 26.5412 56.374 26.4545H46.0738L44.487 21.6551H56.5038C56.5047 21.3821 56.5056 21.1099 56.5038 20.8403H46.1899L45.7642 19.554H42.6776L42.9932 17.1677C43.0199 16.9675 43.0448 16.7846 43.0681 16.6147C43.2134 15.5512 43.2693 15.142 43.1962 14.1773C43.0964 14.0976 42.9502 13.9979 42.7198 13.8531L39.8757 12.0615L42.7241 10.2767C43.9418 9.51397 44.9669 8.58477 45.9516 7.3522L47.3835 5.56054L49.0287 7.15543C49.6918 7.79773 51.2664 8.83007 52.6304 9.53044H55.7118C55.6903 9.52004 55.6679 9.50877 55.6447 9.49837L50.7281 7.22651L55.8829 5.57441C57.8231 4.95205 59.2412 4.34877 60.3472 3.67441L61.3878 3.03992L62.4499 3.638C63.5403 4.25256 65.3266 5.09161 67.6408 5.60215L73.4243 6.87719L68.1594 9.53044H71.2855C71.9675 8.98869 72.6787 8.20252 73.5292 7.05922L75.0523 5.01273L76.7534 6.91187C77.7028 7.97108 79.7772 9.32674 81.4447 10.4154L84.766 12.585L81.1162 14.1279C80.6604 14.3203 80.5288 14.5483 80.5159 14.6194L80.5064 14.674C80.3078 15.754 79.8124 16.548 79.17 17.1461L81.2796 18.7721L78.7658 20.3939C78.3693 20.6496 77.855 21.0085 77.339 21.3829C77.806 21.8224 78.2412 22.2029 78.6282 22.4837L81.1162 24.2893L78.6144 25.9162C79.5604 26.8116 80.5013 27.616 81.2185 28.1361L83.7099 29.9416L81.1316 31.6188C80.0747 32.3062 78.5 33.5284 77.6641 34.4376L77.5222 34.5928C78.5663 34.8329 79.6688 35.0409 80.8074 35.2099L84.4685 35.7552L82.1155 38.6346C81.1342 39.8351 79.3059 42.5413 78.5714 43.9871L77.8843 45.3392V45.3349ZM68.604 37.9395C70.0247 38.8427 72.3364 39.9938 75.6216 40.6829C75.9931 40.064 76.4171 39.4017 76.8489 38.7568C74.4452 38.2212 72.3012 37.5277 70.5364 36.7086L70.5115 36.6974C69.3462 36.1383 65.6112 34.2045 63.9265 31.6769H62.7242L62.8756 29.7656L61.9631 28.0468H62.9874C63.0123 27.5198 63.0321 26.9633 63.0527 26.3756V25.8677H63.0459L63.0579 25.2878C63.0596 25.1543 63.0631 25.02 63.0665 24.8873L63.0914 23.7154C63.1172 22.4803 63.143 21.3318 63.18 20.2535H63.1774L63.1877 20.0533C63.2049 19.5618 63.2256 19.0859 63.2488 18.6231L63.3503 16.6234H63.3718C63.3941 16.3295 63.4208 16.04 63.4544 15.7557L63.4974 15.3908C62.7896 15.0883 62.1274 14.7624 61.4961 14.4304C61.1547 14.6003 60.7987 14.7676 60.4272 14.934L60.6207 15.129V16.0019C60.6207 16.3486 60.6301 16.6875 60.6396 17.0455C60.649 17.4026 60.6594 17.771 60.6594 18.1463V18.7063C60.6869 19.8678 60.6946 21.0345 60.6834 22.2384H60.766L60.6568 24.4505C60.649 24.5996 60.6421 24.7504 60.6344 24.9021L60.6129 25.8686H60.588C60.5725 26.2049 60.5562 26.5481 60.5407 26.8974C60.5243 27.2823 60.4968 27.6663 60.4581 28.0477H60.606L60.0264 30.6212C59.9928 30.7702 59.9576 30.9185 59.9206 31.0658L59.789 31.6769H59.7572C58.8791 34.7401 57.277 37.3006 54.9249 39.3818C55.4503 39.2379 55.9414 39.0836 56.3998 38.9198C58.9282 38.0166 60.4891 36.8265 61.4583 35.0609L62.7362 32.7344L64.6919 34.52C65.0281 34.8268 65.361 35.1467 65.6826 35.4561C66.5615 36.3012 67.4705 37.175 68.6049 37.9395H68.604ZM72.2977 32.8861C72.6796 33.0629 73.0872 33.2337 73.5189 33.3984C73.0683 32.9962 72.5798 32.594 72.1231 32.262H71.0972C71.4833 32.4787 71.8858 32.6876 72.2977 32.8861ZM75.5399 29.5975C75.7446 29.7665 75.9467 29.939 76.1437 30.1115C76.2881 29.9893 76.4343 29.8679 76.5814 29.7483C76.3681 29.5567 76.1574 29.3634 75.9519 29.1702C75.8143 29.3175 75.6767 29.4597 75.5408 29.5975H75.5399ZM67.1988 27.4626H70.8022C70.3851 27.0994 69.9439 26.7475 69.5345 26.4528H67.2349V26.484C67.222 26.8194 67.2108 27.1445 67.1988 27.4617V27.4626ZM72.9341 23.7666C73.162 23.9521 73.3891 24.1436 73.6101 24.3378C73.7477 24.2303 73.8862 24.1237 74.0255 24.018C73.7993 23.7978 73.5705 23.5716 73.3392 23.3401C73.2076 23.4823 73.0726 23.6244 72.9341 23.7666ZM67.3235 21.6534H69.0787C69.3582 21.3994 69.6188 21.1506 69.8631 20.9036C69.833 20.881 69.8029 20.8594 69.7728 20.8377H67.3467C67.339 21.1047 67.3304 21.376 67.3235 21.6525V21.6534ZM73.1612 18.1533C73.4132 18.3622 73.6428 18.5641 73.8432 18.7444C73.9816 18.6378 74.1244 18.5294 74.2697 18.4211C74.2035 18.3578 74.1373 18.2945 74.0719 18.2321L73.5559 17.7381C73.4269 17.8776 73.2953 18.0163 73.162 18.1541H73.1612V18.1533ZM69.1217 16.0383H69.3118C69.3806 15.9759 69.4494 15.9117 69.5174 15.8485L69.1217 16.0383ZM53.3476 16.0383H54.2197L53.3476 15.8017V16.0383ZM47.4033 15.3371H49.1655V14.6679L48.9204 14.6012L49.1655 14.5171V12.4056C48.7114 12.1317 48.2581 11.8404 47.8307 11.544C47.5701 11.8058 47.3044 12.0554 47.0318 12.2946L47.2545 12.6691L47.3018 13.1371C47.3982 14.0915 47.4265 14.7364 47.4033 15.3379V15.3371ZM74.624 12.1854V12.2582C74.624 13.0869 74.5845 13.9571 74.5097 14.8066L74.9078 14.6852C75.8237 14.4061 76.1815 14.173 76.3139 14.0585C76.369 14.0109 76.3767 14.0039 76.393 13.9207C76.479 13.4007 76.6605 12.904 76.9237 12.4455C76.3888 12.0736 75.8908 11.7121 75.435 11.355C75.1624 11.6558 74.8932 11.9314 74.6257 12.1845H74.624V12.1854ZM60.6439 10.1511H61.1212L61.5039 11.7147L61.8952 10.1511H63.2471V8.65325C62.5814 8.39321 61.9846 8.12451 61.4609 7.86707C61.2011 8.00055 60.9311 8.13231 60.6499 8.26146L60.6731 8.28399L60.6439 10.1519V10.1511Z" fill="white"/>
<path d="M75.5073 19.6918L73.5611 17.6747L72.069 19.0434L69.2834 15.8796L73.7185 11.8118L73.7296 11.8222L73.7391 11.8135L74.409 12.5078L75.1547 13.2593L78.5327 16.7603L75.5073 19.6918Z" fill="white"/>
<path d="M74.2757 24.1887L73.2419 23.1919L72.5686 23.848L69.6403 20.8177L73.2402 17.3133L74.6928 18.7366L77.1627 21.1194L74.2757 24.1887Z" fill="white"/>
<path d="M26.5706 22.2341L22.9801 18.6152V10.08L29.111 16.2593V19.105L26.5706 22.2341Z" fill="white"/>
<path d="M18.7464 22.5808L16.2059 19.4508V16.6051L22.3377 10.4249V18.9611L18.7464 22.5808Z" fill="white"/>
<path d="M24.3493 12.0536L20.3709 10.893L20.5627 9.54167L21.685 5.54577L19.6924 3.25744L25.3632 0.826965L29.8249 7.00978L26.4047 7.4345L24.3493 12.0536Z" fill="white"/>
<path d="M75.1865 19.098H59.2412V33.7858H75.1865V19.098Z" fill="white"/>
<path d="M30.5739 11.1912H14.6287V25.8789H30.5739V11.1912Z" fill="white"/>
<path d="M34.1619 33.4295C36.4443 34.6768 39.0364 35.613 41.6662 36.4321C39.8869 38.2255 38.4171 40.2529 37.3335 41.7732C34.1997 40.9151 31.8399 39.2777 30.0992 37.9134C28.3973 36.5482 27.2363 35.0669 25.9988 33.8976C26.0375 37.9914 26.1149 41.3832 26.231 42.9824H19.2288C19.3836 41.228 19.4997 38.0304 19.5771 34.3266C18.8418 35.3399 18.03 36.4711 16.7529 37.6794C13.4264 40.76 9.71207 40.9931 4.33535 41.6952L4.10315 41.1881C5.76639 40.291 7.66183 38.9657 9.20983 37.4063C12.0341 34.7158 14.0843 31.1291 15.3605 28.3215H4.49101L4.25881 27.7364H19.6554C19.6941 26.2161 19.6941 24.7339 19.6941 23.2525H13.6208V24.9679H6.96695C7.00221 24.4608 7.03317 23.9338 7.06069 23.393C7.27655 19.1587 7.27655 14.0958 7.27655 11.0871C6.88955 10.385 6.19295 9.80083 5.34241 9.33276C6.61951 8.51365 8.05055 7.30534 9.24939 5.824C10.2943 6.83728 12.4993 7.96844 14.2787 8.94357H31.1063C32.1512 8.24148 34.0079 6.87715 34.8972 5.58997C36.5217 7.14932 38.4558 8.51451 40.236 9.44978C39.3081 10.0349 38.805 10.5801 38.2245 11.2042C38.1084 15.532 38.1858 20.6392 38.3019 24.1878H31.7642V23.2525H25.9231V27.7364H33.854C34.8593 26.7622 36.4839 25.358 37.374 24.2277C38.5737 25.5929 40.2756 26.9962 41.397 27.8145C40.1973 28.5946 38.148 30.427 37.7223 30.973C36.9104 30.1149 35.5172 29.0626 34.3571 28.3215H28.3225C29.7148 30.0369 31.8812 32.1423 34.1636 33.4295H34.1619ZM19.6941 22.6293C19.7328 20.5629 21.949 17.9894 21.9112 16.118H13.6982L13.6208 22.6293H19.6941ZM13.7747 9.52953L13.6973 16.1189H21.9103C21.9103 13.3503 19.6167 11.0499 19.578 9.52953H13.7747ZM31.802 22.6293L31.8407 16.118H23.4781C23.4394 17.9894 25.9222 20.5629 25.9222 22.6293H31.802ZM23.4772 16.1189H31.8399L31.9173 9.52953H26.1923C26.0762 11.0889 23.5159 13.3893 23.4772 16.1189Z" fill="black"/>
<path d="M58.5291 11.6349L58.5678 9.17846C57.8712 8.51537 57.4463 8.00916 56.5175 7.5801C58.2195 7.03402 59.9601 6.3718 61.4307 5.47467C62.7456 6.21578 64.7185 7.11204 67.1944 7.65811C66.5752 7.97016 65.8021 8.67139 65.3377 9.13946V11.6349H71.9528C73.0355 10.9328 74.0417 9.88056 75.2019 8.32121C76.2846 9.53038 78.2188 10.8167 80.3086 12.181C79.1089 12.6881 78.5679 13.5462 78.4518 14.2865C78.2583 15.3387 77.5617 16.0798 75.5123 16.7039C76.2863 17.445 76.9821 18.1073 77.64 18.6143C76.6733 19.2384 74.9705 20.4857 74.1587 21.1878C75.3584 22.3961 76.4411 23.4883 77.4086 24.1904C76.2089 24.9705 73.9661 26.6469 73.5404 27.1929C72.7277 26.2958 71.3353 25.0875 70.1752 24.3464H65.1846C65.1459 25.0095 65.1459 25.7107 65.1459 26.4128C65.1072 27.5431 65.0685 28.5963 64.9911 29.5706H72.4576C73.6178 28.5963 74.7788 27.5041 75.7841 26.0618C77.099 27.427 78.7631 28.9473 80.0007 29.8436C78.8018 30.6237 77.099 31.949 76.1324 33.0022C75.3197 32.144 73.9274 30.8967 72.7672 30.1556H65.4564C66.3465 31.832 68.9763 33.6254 71.4136 34.7956C73.8508 35.9267 77.0999 36.784 80.5046 37.291C79.4219 38.6164 77.5256 41.4239 76.7138 43.0223C72.4198 42.3592 69.3633 40.9168 67.4679 39.7085C65.7273 38.5392 64.5284 37.213 63.29 36.0827C60.8915 40.4496 55.5535 42.282 44.18 42.9841L43.9865 42.477C52.9614 40.0986 56.7523 35.6537 57.9898 30.1565H44.1413L43.9478 29.5714H58.1059C58.2994 28.6752 58.4155 27.739 58.4542 26.8029C58.4929 25.9448 58.5316 25.1265 58.5703 24.3464H47.5838L47.3903 23.7613H58.5703C58.609 22.0069 58.609 20.3696 58.5703 18.7313H47.6999L47.5064 18.1463H58.5703C58.5703 17.4442 58.5316 16.7429 58.5316 16.0018C58.1059 15.5728 57.1006 14.6375 56.0944 14.3645C57.7963 13.7794 59.5765 13.0773 61.1237 12.259H51.2595V17.445H45.0701C45.3023 15.6907 45.4184 15.2616 45.2249 13.3512C44.8766 12.7661 44.4509 12.4549 43.8325 12.0649C45.2636 11.1677 46.4633 10.0765 47.5847 8.67312C48.59 9.64826 50.6798 10.9346 52.1496 11.6367H58.5325L58.5291 11.6349ZM61.8951 12.2582C63.4035 13.0773 65.1829 13.9735 67.504 14.4806C66.6913 14.8707 65.9947 15.4159 65.5312 16.001C65.4538 16.6641 65.4151 17.3662 65.3764 18.1454H70.0961C70.8314 17.5213 71.5658 16.8201 72.2624 16.04C72.4559 14.7146 72.5333 13.3495 72.5333 12.2582H61.8951ZM72.842 20.6808C72.1067 19.9787 71.2175 19.2376 70.4048 18.7313H65.3368C65.2594 20.2517 65.2207 21.9289 65.182 23.7613H69.863C70.9079 22.8642 71.9132 21.8899 72.842 20.6808Z" fill="black"/>
<path d="M75.5572 16.7204L73.6505 14.7441L72.2272 16.0486L72.2178 16.0374L73.6505 14.7233L73.6557 14.7285L75.5675 16.71L75.5572 16.7204Z" fill="white"/>
<path d="M74.2035 21.2026L73.2351 20.2682L72.6134 20.8732L72.603 20.8628L73.2351 20.2474L73.2403 20.2526L74.2138 21.1922L74.2035 21.2026Z" fill="white"/>
<path d="M25.0708 15.1671V17.7423L26.415 19.098L27.0204 18.3526V17.1321L25.0708 15.1671Z" fill="black"/>
<path d="M20.2463 15.5129V18.0882L18.9021 19.4438L18.2966 18.6984V17.478L20.2463 15.5129Z" fill="black"/>
<path d="M22.6129 9.97938L24.0061 5.01615L23.1702 4.05661L24.6503 3.42212L26.0452 5.35506L24.9796 5.48768L22.4409 11.1912L22.6129 9.97938Z" fill="black"/>
<path d="M20.045 59.7643H5.9668V46.121H11.2842V56.2564H20.0441V59.7643H20.045Z" fill="white"/>
<path d="M22.4848 62.2225H3.52783V43.6619H13.724V53.7973H22.484V62.2225H22.4848ZM8.40661 57.3052H8.84521V48.5792H8.40661V57.3052Z" fill="black"/>
<path d="M20.0992 59.8188H5.9126V46.0655H11.3392V56.2009H20.0992V59.8188ZM6.02182 59.7088H19.9908V56.3101H11.2308V46.1747H6.02182V59.7079V59.7088Z" fill="black"/>
<path d="M22.539 62.2779H3.47278V43.6073H13.7782V53.7427H22.5381V62.2779H22.539ZM8.46078 57.2506H8.79102V48.6347H8.46078V57.2506Z" fill="black"/>
<path d="M33.8067 57.8348H27.7729L27.0187 59.7642H21.507L27.7729 46.121H33.8067L40.0726 59.7642H34.5609L33.8067 57.8348ZM32.4143 54.326L30.7898 50.155L29.1653 54.326H32.4143Z" fill="white"/>
<path d="M43.8893 62.2225H32.9003L32.146 60.293H29.4345L28.6802 62.2225H17.6912L26.2146 43.6619H30.6987L30.7907 43.6454L30.8827 43.6619H35.3667L43.8902 62.2225H43.8893ZM36.2216 57.3052H36.2551L36.0315 56.818L36.2216 57.3052ZM25.3254 57.3052H25.3589L25.5498 56.8172L25.3254 57.3052Z" fill="black"/>
<path d="M40.1577 59.8188H34.5238L33.7696 57.8894H27.8107L27.0565 59.8188H21.4226L27.7384 46.0655H33.8419L40.1577 59.8188ZM34.5978 59.7088H39.9866L33.7713 46.1756H27.8072L21.592 59.7088H26.9808L27.735 57.7793H33.8427L34.5969 59.7088H34.5978ZM32.4942 54.3806H29.0861L30.7906 50.0042L32.4951 54.3806H32.4942ZM29.246 54.2714H32.3343L30.7897 50.3058L29.2452 54.2714H29.246Z" fill="black"/>
<path d="M43.9753 62.2779H32.8632L32.109 60.3485H29.4714L28.7172 62.2779H17.6051L26.1793 43.6073H30.6616H30.7906H30.9188H35.4011L43.9753 62.2779Z" fill="black"/>
<path d="M58.4371 55.7684C58.4371 59.0041 56.2518 59.7643 51.9011 59.7643H41.9225V46.121H52.3259C55.6911 46.121 57.934 46.6671 57.934 49.6099C57.934 51.2663 56.9862 52.1235 55.5165 52.5725V52.6306C57.2571 53.0597 58.4371 53.9759 58.4371 55.7684ZM47.2407 49.4538V51.2862H51.4564C52.4429 51.2862 52.7327 50.9161 52.7327 50.331C52.7327 49.7459 52.4429 49.4538 51.4564 49.4538H47.2407ZM53.0612 55.3983C53.0612 54.7551 52.7327 54.4431 51.6878 54.4431H47.2399V56.4506H51.6878C52.7705 56.4506 53.0612 56.0414 53.0612 55.3983Z" fill="white"/>
<path d="M51.9011 62.2225H39.4835V43.6619H52.3268C54.0106 43.6619 55.9422 43.7703 57.5005 44.5712C58.8112 45.2447 60.3738 46.6662 60.3738 49.6098C60.3738 50.344 60.2465 51.3582 59.703 52.3333C60.4727 53.2729 60.8769 54.4491 60.8769 55.7684C60.8769 58.8958 59.2919 60.417 57.9615 61.1416C56.5726 61.8992 54.7597 62.2225 51.9011 62.2225ZM44.3623 57.3052H44.8009V48.5792H44.3623V57.3052ZM55.495 55.1885C55.4984 55.257 55.5002 55.3272 55.5002 55.3983C55.5002 55.9313 55.3918 56.4939 55.1467 57.0096C55.3436 56.9533 55.5079 56.8891 55.6395 56.8172C55.8072 56.7253 55.9972 56.6222 55.9972 55.7684C55.9972 55.5725 55.9972 55.3853 55.495 55.1876V55.1885ZM54.8208 48.7873C55.0263 49.2024 55.1347 49.6514 55.1639 50.0883C55.36 49.9999 55.4425 49.9279 55.4563 49.9071C55.4649 49.8933 55.495 49.8031 55.495 49.609C55.495 49.0594 55.4064 49.0144 55.2843 48.9511C55.1622 48.8887 55.0082 48.8341 54.8208 48.7873Z" fill="black"/>
<path d="M51.901 59.8188H41.8683V46.0655H52.3267C55.8226 46.0655 57.9898 46.6584 57.9898 49.6098C57.9898 51.1085 57.2133 52.0871 55.6171 52.5985C57.5521 53.0986 58.4929 54.1362 58.4929 55.7683C58.4929 59.1557 56.0763 59.8188 51.9019 59.8188H51.901ZM41.9775 59.7088H51.9019C57.3233 59.7088 58.3837 58.2638 58.3837 55.7683C58.3837 54.17 57.442 53.161 55.5053 52.6834L55.464 52.673V52.5309L55.5027 52.5187C57.1255 52.0238 57.8815 51.0989 57.8815 49.6089C57.8815 46.7494 55.7564 46.1747 52.3276 46.1747H41.9784V59.7079H41.9775V59.7088ZM51.6886 56.506H47.1865V54.3884H51.6886C52.7026 54.3884 53.1162 54.6805 53.1162 55.3982C53.1162 56.1749 52.6897 56.506 51.6886 56.506ZM47.2949 56.3959H51.6886C52.847 56.3959 53.007 55.9166 53.007 55.3982C53.007 54.8426 52.7868 54.4985 51.6886 54.4985H47.2949V56.3959ZM51.4564 51.3408H47.1865V49.3992H51.4564C52.3895 49.3992 52.7877 49.6774 52.7877 50.331C52.7877 51.0296 52.3775 51.3408 51.4564 51.3408ZM47.2949 51.2307H51.4564C52.5331 51.2307 52.6785 50.7756 52.6785 50.331C52.6785 49.8378 52.4704 49.5092 51.4564 49.5092H47.2949V51.2316V51.2307Z" fill="black"/>
<path d="M51.901 62.2779H39.4285V43.6073H52.3259C54.7674 43.6073 56.3455 43.8907 57.6011 44.5538C58.8911 45.2351 60.4279 46.6653 60.4279 49.6098C60.4279 50.6162 60.1983 51.5272 59.7623 52.3133C60.5277 53.2564 60.931 54.4448 60.931 55.7692C60.931 58.9798 59.2747 60.5201 57.8858 61.2465C56.1486 62.1557 53.8859 62.2779 51.901 62.2779ZM44.4165 57.2506H44.7467V48.6347H44.4165V57.2506ZM55.5535 55.2795C55.5543 55.3185 55.5552 55.3584 55.5552 55.3982C55.5552 55.894 55.4632 56.4141 55.2568 56.9004C55.5285 56.8128 55.6825 56.7279 55.765 56.669C55.814 56.6343 55.9439 56.5415 55.9439 55.7692C55.9439 55.6851 55.937 55.5378 55.8932 55.491C55.8708 55.4676 55.7814 55.3826 55.5535 55.2804V55.2795ZM54.9196 48.867C55.0848 49.2345 55.1785 49.6237 55.212 50.0059C55.3393 49.9427 55.3952 49.8941 55.4116 49.8794C55.4219 49.8499 55.4408 49.7632 55.4408 49.6098C55.4408 49.1972 55.3651 49.0663 55.3643 49.0646C55.3471 49.0464 55.2507 48.9589 54.9205 48.867H54.9196Z" fill="black"/>
<path d="M78.6385 52.9426C78.6385 58.2829 74.0358 60.0572 69.4529 60.0572C64.8699 60.0572 60.2861 58.2838 60.2861 52.9426C60.2861 47.6015 64.8691 45.848 69.4529 45.848C74.0367 45.848 78.6385 47.6214 78.6385 52.9426ZM73.2438 52.9426C73.2438 50.7601 71.9288 49.3368 69.4537 49.3368C66.9787 49.3368 65.6637 50.7601 65.6637 52.9426C65.6637 55.1252 66.9787 56.5684 69.4537 56.5684C71.9288 56.5684 73.2438 55.146 73.2438 52.9426Z" fill="white"/>
<path d="M69.4537 62.5155C62.2951 62.5155 57.848 58.8472 57.848 52.9427C57.848 47.0381 62.2951 43.3898 69.4537 43.3898C76.6124 43.3898 81.0783 47.0502 81.0783 52.9427C81.0783 58.8351 76.6235 62.5155 69.4537 62.5155ZM74.9379 49.8335C75.4204 50.7167 75.6827 51.7664 75.6827 52.9418C75.6827 54.1172 75.4178 55.1842 74.9319 56.0718C75.7936 55.3272 76.1996 54.3174 76.1996 52.9418C76.1996 51.5662 75.7962 50.5737 74.9379 49.8335ZM63.9583 49.8534C63.1207 50.5919 62.7268 51.5887 62.7268 52.9427C62.7268 54.2966 63.1233 55.3107 63.9643 56.0527C63.4853 55.1686 63.2239 54.118 63.2239 52.9427C63.2239 51.7673 63.4827 50.7323 63.9583 49.8534ZM69.4537 51.795C68.1973 51.795 68.1027 52.2492 68.1027 52.9418C68.1027 53.3553 68.1887 53.6768 68.3383 53.825C68.5206 54.0053 68.9265 54.1085 69.4537 54.1085C70.7102 54.1085 70.8048 53.6465 70.8048 52.9418C70.8048 52.7052 70.7747 52.2778 70.5726 52.0785C70.3894 51.8982 69.9818 51.7942 69.4546 51.7942L69.4537 51.795Z" fill="black"/>
<path d="M69.4537 60.1119C67.6683 60.1119 65.121 59.8406 63.1224 58.5491C61.2046 57.3096 60.2328 55.4234 60.2328 52.9427C60.2328 50.4619 61.2046 48.5905 63.1224 47.3536C65.1219 46.0638 67.6692 45.7934 69.4537 45.7934C71.2382 45.7934 73.789 46.0638 75.7945 47.3536C77.7183 48.5914 78.6935 50.4715 78.6935 52.9427C78.6935 55.4139 77.7183 57.3087 75.7945 58.5491C73.7907 59.8406 71.2399 60.1119 69.4537 60.1119ZM69.4537 45.9026C67.6838 45.9026 65.1589 46.1704 63.1817 47.4455C61.2975 48.6607 60.342 50.5096 60.342 52.9418C60.342 55.374 61.2975 57.2376 63.1817 58.4555C65.158 59.7331 67.6838 60.0009 69.4537 60.0009C71.2236 60.0009 73.7537 59.7331 75.736 58.4555C77.6263 57.2368 78.5852 55.3818 78.5852 52.9418C78.5852 50.5018 77.6263 48.6616 75.736 47.4455C73.7529 46.1696 71.2253 45.9026 69.4537 45.9026ZM69.4537 56.6222C67.0466 56.6222 65.6086 55.2466 65.6086 52.9418C65.6086 50.637 67.0457 49.2814 69.4537 49.2814C71.8617 49.2814 73.2988 50.65 73.2988 52.9418C73.2988 55.2336 71.8617 56.6222 69.4537 56.6222ZM69.4537 49.3914C67.1145 49.3914 65.7179 50.7185 65.7179 52.9427C65.7179 55.1669 67.0792 56.513 69.4537 56.513C71.8282 56.513 73.1895 55.2119 73.1895 52.9427C73.1895 50.6734 71.7929 49.3914 69.4537 49.3914Z" fill="black"/>
<path d="M69.4537 62.5701C67.3424 62.5701 64.3014 62.2312 61.8057 60.6181C59.181 58.9218 57.7938 56.2677 57.7938 52.9426C57.7938 49.6176 59.1819 46.9765 61.8083 45.2828C64.3049 43.6732 67.3441 43.3343 69.4537 43.3343C71.5633 43.3343 74.6051 43.6723 77.1068 45.2802C79.741 46.9748 81.1334 49.6237 81.1334 52.9418C81.1334 56.2599 79.7419 58.9218 77.1094 60.6189C74.6085 62.2312 71.5659 62.5692 69.4537 62.5692V62.5701ZM75.1271 50.0814C75.5236 50.9126 75.7377 51.8765 75.7377 52.9426C75.7377 54.0088 75.5219 54.9883 75.122 55.8247C75.8246 55.1157 76.1454 54.196 76.1454 52.9426C76.1454 51.6893 75.8263 50.7869 75.1271 50.0814ZM63.7674 50.1074C63.0906 50.8086 62.781 51.7144 62.781 52.9426C62.781 54.1709 63.0923 55.0932 63.7725 55.7979C63.3804 54.9675 63.1688 54.0053 63.1688 52.9426C63.1688 51.88 63.3787 50.9326 63.7674 50.1074ZM69.4537 51.8496C68.9618 51.8496 68.561 51.951 68.3821 52.1209C68.1861 52.3073 68.1568 52.7147 68.1568 52.9418C68.1568 53.3518 68.2359 53.6621 68.3735 53.7938C68.5438 53.9568 68.9472 54.0539 69.4528 54.0539C69.9585 54.0539 70.3627 53.9568 70.5321 53.7938C70.6697 53.6621 70.7489 53.3518 70.7489 52.9418C70.7489 52.7156 70.7196 52.3073 70.5235 52.1209C70.3447 51.951 69.9439 51.8496 69.452 51.8496H69.4537Z" fill="black"/>
<path d="M72.3665 51.2307H67.486V56.1497H72.3665V51.2307Z" fill="white"/>
<path d="M20.045 59.7643H5.9668V46.121H11.2842V56.2564H20.0441V59.7643H20.045Z" fill="white"/>
<path d="M22.1356 61.8715H3.8761V44.013H13.3757V54.1484H22.1356V61.8715ZM8.05828 57.6571H9.19434V48.2282H8.05828V57.6571Z" fill="white"/>
<path d="M20.0992 59.8189H5.9126V46.0656H11.3392V56.2009H20.0992V59.8189ZM6.02182 59.7088H19.9908V56.3101H11.2308V46.1748H6.02182V59.708V59.7088Z" fill="black"/>
<path d="M22.1906 61.9261H3.8219V43.9575H13.4307V54.0929H22.1906V61.9261ZM8.11244 57.6017H9.13928V48.2828H8.11244V57.6017Z" fill="white"/>
<path d="M33.8068 57.8348H27.773L27.0188 59.7643H21.5071L27.773 46.121H33.8068L40.0728 59.7643H34.561L33.8068 57.8348ZM32.4145 54.3261L30.7899 50.1551L29.1654 54.3261H32.4145Z" fill="white"/>
<path d="M43.3442 61.8715H33.1377L32.3834 59.942H29.1971L28.4429 61.8715H18.2365L26.4374 44.013H35.1432L43.3442 61.8715ZM35.9851 57.6571H36.8013L32.4712 48.2282H32.2863L35.2068 55.7268H35.2309L35.9851 57.6563V57.6571ZM24.7802 57.6571H25.5963L26.3505 55.7277H26.3746L29.2952 48.2291H29.1103L24.7802 57.658V57.6571Z" fill="white"/>
<path d="M40.1578 59.8189H34.524L33.7697 57.8894H27.8108L27.0566 59.8189H21.4227L27.7386 46.0656H33.842L40.1578 59.8189ZM34.5979 59.7088H39.9867L33.7715 46.1756H27.8074L21.5921 59.7088H26.9809L27.7351 57.7793H33.8428L34.5971 59.7088H34.5979ZM32.4944 54.3807H29.0862L30.7907 50.0042L32.4952 54.3807H32.4944ZM29.2461 54.2714H32.3344L30.7898 50.3059L29.2453 54.2714H29.2461Z" fill="black"/>
<path d="M43.4292 61.9261H33.1006L32.3464 59.9966H29.2341L28.4799 61.9261H18.1504L26.4021 43.9575H35.1775L43.4292 61.9261ZM36.022 57.6017H36.7152L32.4359 48.2828H32.3662L35.2438 55.6722H35.2678L36.022 57.6017ZM24.8653 57.6017H25.5584L26.3126 55.6722H26.3367L29.2143 48.2828H29.1446L24.8653 57.6017Z" fill="white"/>
<path d="M58.4371 55.7684C58.4371 59.0041 56.2518 59.7643 51.9011 59.7643H41.9225V46.121H52.3259C55.6911 46.121 57.934 46.6671 57.934 49.6099C57.934 51.2663 56.9862 52.1235 55.5165 52.5725V52.6306C57.2571 53.0597 58.4371 53.9759 58.4371 55.7684ZM47.2407 49.4538V51.2862H51.4564C52.4429 51.2862 52.7327 50.9161 52.7327 50.331C52.7327 49.7459 52.4429 49.4538 51.4564 49.4538H47.2407ZM53.0612 55.3983C53.0612 54.7551 52.7327 54.4431 51.6878 54.4431H47.2399V56.4506H51.6878C52.7705 56.4506 53.0612 56.0414 53.0612 55.3983Z" fill="white"/>
<path d="M51.901 61.8715H39.8318V44.013H52.3259C53.9685 44.013 55.8484 44.1161 57.3414 44.8833C58.5652 45.5125 60.0246 46.8431 60.0246 49.609C60.0246 50.3466 59.887 51.3868 59.2738 52.3602C60.3127 53.4974 60.5277 54.8479 60.5277 55.7675C60.5277 58.1391 59.6083 59.8432 57.7955 60.8322C56.4607 61.5603 54.6977 61.8706 51.901 61.8706V61.8715ZM44.0131 57.6571H45.1492V48.2282H44.0131V57.6571ZM55.0804 54.6927C55.1295 54.9259 55.1518 55.1634 55.1518 55.3983C55.1518 56.4116 54.7794 57.0894 54.3924 57.5193C54.9394 57.4413 55.4528 57.3182 55.8054 57.1267C56.0462 56.9958 56.3464 56.832 56.3464 55.7693C56.3464 55.4165 56.3464 55.0169 55.0804 54.6936V54.6927ZM54.0631 48.3053C54.432 48.6997 54.8233 49.3498 54.8233 50.331C54.8233 50.4151 54.8199 50.5001 54.8138 50.585L54.911 50.5555C55.8433 50.2712 55.8433 50.0077 55.8433 49.6099C55.8433 48.8454 55.6394 48.7405 55.4425 48.6391C55.1002 48.4631 54.5851 48.3625 54.0631 48.3053Z" fill="white"/>
<path d="M51.901 59.8189H41.8683V46.0656H52.3267C55.8226 46.0656 57.9898 46.6584 57.9898 49.6099C57.9898 51.1085 57.2133 52.0871 55.6171 52.5985C57.5521 53.0987 58.4929 54.1362 58.4929 55.7684C58.4929 59.1558 56.0763 59.8189 51.9019 59.8189H51.901ZM41.9775 59.7088H51.9019C57.3233 59.7088 58.3837 58.2639 58.3837 55.7684C58.3837 54.17 57.442 53.1611 55.5053 52.6835L55.464 52.6731V52.5309L55.5027 52.5188C57.1255 52.0239 57.8815 51.099 57.8815 49.609C57.8815 46.7494 55.7564 46.1748 52.3276 46.1748H41.9784V59.708H41.9775V59.7088ZM51.6886 56.506H47.1865V54.3885H51.6886C52.7026 54.3885 53.1162 54.6806 53.1162 55.3983C53.1162 56.1749 52.6897 56.506 51.6886 56.506ZM47.2949 56.3959H51.6886C52.847 56.3959 53.007 55.9166 53.007 55.3983C53.007 54.8427 52.7868 54.4985 51.6886 54.4985H47.2949V56.3959ZM51.4564 51.3408H47.1865V49.3992H51.4564C52.3895 49.3992 52.7877 49.6775 52.7877 50.331C52.7877 51.0297 52.3775 51.3408 51.4564 51.3408ZM47.2949 51.2307H51.4564C52.5331 51.2307 52.6785 50.7757 52.6785 50.331C52.6785 49.8378 52.4704 49.5093 51.4564 49.5093H47.2949V51.2316V51.2307Z" fill="black"/>
<path d="M51.901 61.9261H39.7767V43.9575H52.3259C54.7072 43.9575 56.2363 44.2288 57.4386 44.8633C58.6434 45.4995 60.0788 46.8396 60.0788 49.6081C60.0788 50.6535 59.8268 51.5775 59.3443 52.3541C60.3703 53.4983 60.5819 54.8487 60.5819 55.7667C60.5819 61.9243 54.4982 61.9243 51.9002 61.9243V61.9261H51.901ZM44.0681 57.6017H45.095V48.2828H44.0681V57.6017ZM55.1432 54.7655C55.1974 55.0481 55.2069 55.2778 55.2069 55.3974C55.2069 56.3361 54.8861 56.9914 54.5447 57.4231C55.3694 57.2844 55.7727 57.0928 55.9662 56.9542C56.0961 56.8614 56.2922 56.7219 56.2922 55.7675C56.2922 55.4416 56.2922 55.0741 55.1432 54.7647V54.7655ZM54.1998 48.3755C54.641 48.8965 54.8775 49.5691 54.8775 50.3302C54.8775 50.3891 54.8758 50.4489 54.8732 50.5087L54.8947 50.5018C55.7882 50.2287 55.7882 50.0086 55.7882 49.609C55.7882 48.88 55.6128 48.7881 55.4262 48.6911C55.1209 48.5316 54.6702 48.4345 54.1989 48.3755H54.1998Z" fill="white"/>
<path d="M78.6385 52.9427C78.6385 58.283 74.0358 60.0573 69.4529 60.0573C64.8699 60.0573 60.2861 58.2839 60.2861 52.9427C60.2861 47.6015 64.8691 45.848 69.4529 45.848C74.0367 45.848 78.6385 47.6215 78.6385 52.9427ZM73.2438 52.9427C73.2438 50.7601 71.9288 49.3369 69.4537 49.3369C66.9787 49.3369 65.6637 50.7601 65.6637 52.9427C65.6637 55.1253 66.9787 56.5685 69.4537 56.5685C71.9288 56.5685 73.2438 55.1461 73.2438 52.9427Z" fill="white"/>
<path d="M69.4537 62.1636C62.51 62.1636 58.1963 58.6297 58.1963 52.9418C58.1963 47.254 62.51 43.74 69.4537 43.74C76.3973 43.74 80.73 47.2661 80.73 52.9418C80.73 58.6176 76.4094 62.1636 69.4537 62.1636ZM73.5026 48.6105C74.6627 49.6168 75.3352 51.1198 75.3352 52.9418C75.3352 54.7638 74.6601 56.285 73.4948 57.2957C73.9188 57.1345 74.3024 56.9438 74.6386 56.7271C75.9415 55.8872 76.5487 54.6849 76.5487 52.9427C76.5487 51.2004 75.9424 50.0138 74.6403 49.1765C74.3049 48.9607 73.9231 48.7717 73.5026 48.6113V48.6105ZM65.3996 48.6148C64.9851 48.7743 64.6093 48.9615 64.2782 49.1748C62.9813 50.0112 62.3776 51.2083 62.3776 52.9418C62.3776 54.6754 62.9822 55.8889 64.2799 56.728C64.6119 56.9429 64.9903 57.131 65.4074 57.2914C64.2447 56.2816 63.5721 54.7716 63.5721 52.9418C63.5721 51.112 64.2421 49.6212 65.3996 48.6139V48.6148ZM69.4537 51.444C68.0381 51.444 67.7543 52.017 67.7543 52.9427C67.7543 53.8684 68.039 54.4604 69.4537 54.4604C70.8684 54.4604 71.153 53.8797 71.153 52.9427C71.153 51.6954 70.5029 51.444 69.4537 51.444Z" fill="white"/>
<path d="M69.4537 60.1119C67.6683 60.1119 65.121 59.8406 63.1224 58.5491C61.2046 57.3096 60.2328 55.4234 60.2328 52.9427C60.2328 50.4619 61.2046 48.5905 63.1224 47.3536C65.1219 46.0638 67.6692 45.7934 69.4537 45.7934C71.2382 45.7934 73.789 46.0638 75.7945 47.3536C77.7183 48.5914 78.6935 50.4715 78.6935 52.9427C78.6935 55.4139 77.7183 57.3087 75.7945 58.5491C73.7907 59.8406 71.2399 60.1119 69.4537 60.1119ZM69.4537 45.9026C67.6838 45.9026 65.1589 46.1704 63.1817 47.4455C61.2975 48.6607 60.342 50.5096 60.342 52.9418C60.342 55.374 61.2975 57.2376 63.1817 58.4555C65.158 59.7331 67.6838 60.0009 69.4537 60.0009C71.2236 60.0009 73.7537 59.7331 75.736 58.4555C77.6263 57.2368 78.5852 55.3818 78.5852 52.9418C78.5852 50.5018 77.6263 48.6616 75.736 47.4455C73.7529 46.1696 71.2253 45.9026 69.4537 45.9026ZM69.4537 56.6222C67.0466 56.6222 65.6086 55.2466 65.6086 52.9418C65.6086 50.637 67.0457 49.2814 69.4537 49.2814C71.8617 49.2814 73.2988 50.65 73.2988 52.9418C73.2988 55.2336 71.8617 56.6222 69.4537 56.6222ZM69.4537 49.3914C67.1145 49.3914 65.7179 50.7185 65.7179 52.9427C65.7179 55.1669 67.0792 56.513 69.4537 56.513C71.8282 56.513 73.1895 55.2119 73.1895 52.9427C73.1895 50.6734 71.7929 49.3914 69.4537 49.3914Z" fill="black"/>
<path d="M69.4537 62.2191C67.3888 62.2191 64.4184 61.8897 61.994 60.3225C59.4742 58.6938 58.1421 56.142 58.1421 52.9427C58.1421 49.7434 59.4742 47.2045 61.9957 45.5784C64.4218 44.0139 67.3905 43.6854 69.4537 43.6854C71.5168 43.6854 74.489 44.013 76.9193 45.5767C79.4486 47.2037 80.785 49.7503 80.785 52.9418C80.785 56.1333 79.4494 58.6938 76.9219 60.3234C74.4924 61.8897 71.5202 62.2182 69.4545 62.2182H69.4537V62.2191ZM73.7588 48.7708C74.7951 49.7815 75.3885 51.2212 75.3885 52.9427C75.3885 54.6641 74.7917 56.1221 73.7502 57.1362C74.0486 57.0062 74.3367 56.8554 74.6085 56.6811C75.8942 55.8525 76.4928 54.6641 76.4928 52.9427C76.4928 51.2212 75.8942 50.0493 74.6102 49.2233C74.341 49.0499 74.0547 48.9008 73.7588 48.7717V48.7708ZM65.1416 48.776C64.8518 48.9034 64.5715 49.0508 64.3074 49.2207C63.0278 50.0459 62.4318 51.2282 62.4318 52.9418C62.4318 54.6555 63.0286 55.8534 64.3092 56.6811C64.5749 56.8528 64.857 57.001 65.1494 57.1293C64.1122 56.1151 63.5171 54.6693 63.5171 52.9409C63.5171 51.2126 64.1088 49.785 65.1416 48.7752V48.776ZM69.4537 51.4986C67.9358 51.4986 67.8085 52.244 67.8085 52.9418C67.8085 54.0218 68.2393 54.4049 69.4537 54.4049C70.668 54.4049 71.0988 54.0218 71.0988 52.9418C71.0988 52.2432 70.9716 51.4986 69.4537 51.4986Z" fill="white"/>
<path d="M20.045 59.7642H5.9668V46.121H11.2842V56.2563H20.0441V59.7642H20.045Z" fill="white"/>
<path d="M20.1146 59.8345H5.89709V46.0508H11.3547V56.1862H20.1146V59.8345ZM6.03641 59.694H19.9753V56.3266H11.2153V46.1912H6.03727V59.694H6.03641Z" fill="black"/>
<path d="M20.0992 59.8188H5.9126V46.0655H11.3392V56.2009H20.0992V59.8188ZM6.02182 59.7088H19.9908V56.3101H11.2308V46.1747H6.02182V59.7079V59.7088Z" fill="black"/>
<path d="M20.1696 59.8891H5.8429V45.9953H11.4088V56.1307H20.1688V59.8891H20.1696ZM6.09144 59.6386H19.9211V56.3812H11.1611V46.2458H6.09144V59.6386Z" fill="black"/>
<path d="M33.8067 57.8348H27.7729L27.0187 59.7642H21.507L27.7729 46.121H33.8067L40.0726 59.7642H34.5609L33.8067 57.8348ZM32.4143 54.326L30.7898 50.155L29.1653 54.326H32.4143Z" fill="white"/>
<path d="M40.1818 59.8345H34.5136L33.7593 57.905H27.821L27.0668 59.8345H21.3986L27.729 46.0508H33.8514L33.8703 46.0915L40.1818 59.8345ZM34.6082 59.694H39.9634L33.7628 46.1912H27.8185L21.617 59.694H26.9722L27.7264 57.7646H33.8548L34.609 59.694H34.6082ZM32.5166 54.3962H29.0637L30.7906 49.9626L32.5175 54.3962H32.5166ZM29.2684 54.2558H32.3128L30.7906 50.3475L29.2684 54.2558Z" fill="black"/>
<path d="M40.1578 59.8188H34.524L33.7697 57.8894H27.8108L27.0566 59.8188H21.4227L27.7386 46.0655H33.842L40.1578 59.8188ZM34.5979 59.7088H39.9867L33.7715 46.1756H27.8074L21.5921 59.7088H26.9809L27.7351 57.7793H33.8428L34.5971 59.7088H34.5979ZM32.4944 54.3806H29.0862L30.7907 50.0042L32.4952 54.3806H32.4944ZM29.2461 54.2714H32.3344L30.7898 50.3058L29.2453 54.2714H29.2461Z" fill="black"/>
<path d="M40.267 59.8891H34.4766L33.7224 57.9596H27.8581L27.1039 59.8891H21.3135L27.6938 45.9953H33.8858L33.9047 46.036L40.2662 59.8891H40.267ZM34.6461 59.6386H39.8783L33.7276 46.2458H27.8529L21.7022 59.6386H26.9344L27.6887 57.7091H33.891L34.6452 59.6386H34.6461ZM32.5967 54.4508H28.9838L30.7907 49.8118L32.5975 54.4508H32.5967ZM29.3485 54.2012H32.2329L30.7907 50.4983L29.3485 54.2012Z" fill="black"/>
<path d="M58.4371 55.7683C58.4371 59.0041 56.2518 59.7642 51.9011 59.7642H41.9225V46.121H52.3259C55.6911 46.121 57.934 46.667 57.934 49.6098C57.934 51.2662 56.9862 52.1235 55.5165 52.5725V52.6306C57.2571 53.0596 58.4371 53.9758 58.4371 55.7683ZM47.2407 49.4538V51.2862H51.4564C52.4429 51.2862 52.7327 50.916 52.7327 50.331C52.7327 49.7459 52.4429 49.4538 51.4564 49.4538H47.2407ZM53.0612 55.3982C53.0612 54.7551 52.7327 54.443 51.6878 54.443H47.2399V56.4505H51.6878C52.7705 56.4505 53.0612 56.0414 53.0612 55.3982Z" fill="white"/>
<path d="M51.901 59.8345H41.8528V46.0508H52.3259C55.8312 46.0508 58.0036 46.6463 58.0036 49.6098C58.0036 51.1007 57.2399 52.0793 55.6695 52.5976C57.5779 53.1047 58.5067 54.1431 58.5067 55.7692C58.5067 59.1696 56.0849 59.8353 51.901 59.8353V59.8345ZM41.9921 59.694H51.901C56.6757 59.694 58.3674 58.6669 58.3674 55.7692C58.3674 54.1787 57.43 53.1749 55.5001 52.6991L55.4468 52.6861V52.5205L55.4967 52.5058C57.1118 52.0126 57.8643 51.0929 57.8643 49.6107C57.8643 46.7641 55.7452 46.1921 52.3259 46.1921H41.9921V59.6949V59.694ZM51.6886 56.5207H47.171V54.3728H51.6886C52.7137 54.3728 53.1317 54.6701 53.1317 55.3982C53.1317 56.1749 52.6871 56.5207 51.6886 56.5207ZM47.3103 56.3803H51.6886C52.8341 56.3803 52.9915 55.9079 52.9915 55.3982C52.9915 54.8522 52.7731 54.5132 51.6886 54.5132H47.3103V56.3803ZM51.4564 51.3555H47.171V49.3827H51.4564C52.3998 49.3827 52.8023 49.6662 52.8023 50.3301C52.8023 51.0392 52.3869 51.3555 51.4564 51.3555ZM47.3103 51.2151H51.4564C52.5202 51.2151 52.663 50.7678 52.663 50.3301C52.663 49.8456 52.4574 49.5231 51.4564 49.5231H47.3103V51.2151Z" fill="black"/>
<path d="M51.901 59.8188H41.8683V46.0655H52.3267C55.8226 46.0655 57.9898 46.6584 57.9898 49.6098C57.9898 51.1085 57.2133 52.0871 55.6171 52.5985C57.5521 53.0986 58.4929 54.1362 58.4929 55.7683C58.4929 59.1557 56.0763 59.8188 51.9019 59.8188H51.901ZM41.9775 59.7088H51.9019C57.3233 59.7088 58.3837 58.2638 58.3837 55.7683C58.3837 54.17 57.442 53.161 55.5053 52.6834L55.464 52.673V52.5309L55.5027 52.5187C57.1255 52.0238 57.8815 51.0989 57.8815 49.6089C57.8815 46.7494 55.7564 46.1747 52.3276 46.1747H41.9784V59.7079H41.9775V59.7088ZM51.6886 56.506H47.1865V54.3884H51.6886C52.7026 54.3884 53.1162 54.6805 53.1162 55.3982C53.1162 56.1749 52.6897 56.506 51.6886 56.506ZM47.2949 56.3959H51.6886C52.847 56.3959 53.007 55.9166 53.007 55.3982C53.007 54.8426 52.7868 54.4985 51.6886 54.4985H47.2949V56.3959ZM51.4564 51.3408H47.1865V49.3992H51.4564C52.3895 49.3992 52.7877 49.6774 52.7877 50.331C52.7877 51.0296 52.3775 51.3408 51.4564 51.3408ZM47.2949 51.2307H51.4564C52.5331 51.2307 52.6785 50.7756 52.6785 50.331C52.6785 49.8378 52.4704 49.5092 51.4564 49.5092H47.2949V51.2316V51.2307Z" fill="black"/>
<path d="M51.901 59.8891H41.7986V45.9953H52.3267C55.8656 45.9953 58.0586 46.6003 58.0586 49.6098C58.0586 51.0738 57.3371 52.0516 55.8544 52.5916C57.6759 53.122 58.5617 54.1631 58.5617 55.7692C58.5617 59.2156 56.1193 59.8899 51.901 59.8899V59.8891ZM42.0471 59.6386H51.9019C57.2648 59.6386 58.314 58.2196 58.314 55.7684C58.314 54.2073 57.3895 53.22 55.4889 52.7519L55.3943 52.7285V52.6132L55.3642 52.6054L55.3943 52.5959V52.4789L55.4829 52.452C57.0722 51.9675 57.8118 51.0643 57.8118 49.6089C57.8118 46.8075 55.7134 46.2449 52.3276 46.2449H42.048V59.6377H42.0471V59.6386ZM51.6886 56.5762H47.1168V54.3182H51.6886C52.7378 54.3182 53.1858 54.6415 53.1858 55.3982C53.1858 56.213 52.724 56.5762 51.6886 56.5762ZM47.3645 56.3257H51.6886C52.841 56.3257 52.9373 55.8472 52.9373 55.3982C52.9373 54.873 52.7326 54.5687 51.6886 54.5687H47.3645V56.3257ZM51.4564 51.411H47.1168V49.329H51.4564C52.4247 49.329 52.8573 49.6384 52.8573 50.331C52.8573 51.0677 52.4127 51.411 51.4564 51.411ZM47.3645 51.1605H51.4564C52.4686 51.1605 52.6088 50.7618 52.6088 50.331C52.6088 49.9505 52.5193 49.5795 51.4564 49.5795H47.3645V51.1614V51.1605Z" fill="black"/>
<path d="M78.6385 52.9426C78.6385 58.2829 74.0358 60.0572 69.4529 60.0572C64.8699 60.0572 60.2861 58.2838 60.2861 52.9426C60.2861 47.6015 64.8691 45.848 69.4529 45.848C74.0367 45.848 78.6385 47.6214 78.6385 52.9426ZM73.2438 52.9426C73.2438 50.7601 71.9288 49.3368 69.4537 49.3368C66.9787 49.3368 65.6637 50.7601 65.6637 52.9426C65.6637 55.1252 66.9787 56.5684 69.4537 56.5684C71.9288 56.5684 73.2438 55.146 73.2438 52.9426Z" fill="white"/>
<path d="M69.4537 60.1266C67.6666 60.1266 65.1158 59.8553 63.1146 58.5612C61.1925 57.3191 60.2181 55.4286 60.2181 52.9427C60.2181 50.4567 61.1925 48.581 63.1146 47.3406C65.1176 46.0491 67.6675 45.7778 69.4537 45.7778C71.2399 45.7778 73.7941 46.0491 75.8022 47.3406C77.7303 48.581 78.7081 50.4654 78.7081 52.9427C78.7081 55.4199 77.7303 57.3182 75.8022 58.562C73.795 59.8562 71.2416 60.1275 69.4537 60.1275V60.1266ZM69.4537 45.9182C67.6855 45.9182 65.164 46.1852 63.1894 47.4593C61.3103 48.6711 60.3575 50.5165 60.3575 52.9427C60.3575 55.3688 61.3103 57.2281 63.1903 58.4433C65.164 59.7192 67.6855 59.9871 69.4545 59.9871C71.2236 59.9871 73.7494 59.7192 75.7282 58.4433C77.6142 57.2281 78.5705 55.3766 78.5705 52.9427C78.5705 50.5087 77.6142 48.672 75.7282 47.4593C73.7485 46.186 71.2236 45.9182 69.4545 45.9182H69.4537ZM69.4537 56.6378C67.0362 56.6378 65.594 55.2561 65.594 52.9418C65.594 50.6275 67.0371 49.2657 69.4537 49.2657C71.8703 49.2657 73.3134 50.6396 73.3134 52.9418C73.3134 55.244 71.8703 56.6378 69.4537 56.6378ZM69.4537 49.407C67.0895 49.407 65.7333 50.6959 65.7333 52.9427C65.7333 55.1894 67.0895 56.4982 69.4537 56.4982C71.8178 56.4982 73.174 55.2024 73.174 52.9427C73.174 50.6829 71.8178 49.407 69.4537 49.407Z" fill="black"/>
<path d="M69.4537 60.1119C67.6683 60.1119 65.121 59.8406 63.1224 58.5491C61.2046 57.3096 60.2328 55.4234 60.2328 52.9427C60.2328 50.4619 61.2046 48.5905 63.1224 47.3536C65.1219 46.0638 67.6692 45.7934 69.4537 45.7934C71.2382 45.7934 73.789 46.0638 75.7945 47.3536C77.7183 48.5914 78.6935 50.4715 78.6935 52.9427C78.6935 55.4139 77.7183 57.3087 75.7945 58.5491C73.7907 59.8406 71.2399 60.1119 69.4537 60.1119ZM69.4537 45.9026C67.6838 45.9026 65.1589 46.1704 63.1817 47.4455C61.2975 48.6607 60.342 50.5096 60.342 52.9418C60.342 55.374 61.2975 57.2376 63.1817 58.4555C65.158 59.7331 67.6838 60.0009 69.4537 60.0009C71.2236 60.0009 73.7537 59.7331 75.736 58.4555C77.6263 57.2368 78.5852 55.3818 78.5852 52.9418C78.5852 50.5018 77.6263 48.6616 75.736 47.4455C73.7529 46.1696 71.2253 45.9026 69.4537 45.9026ZM69.4537 56.6222C67.0466 56.6222 65.6086 55.2466 65.6086 52.9418C65.6086 50.637 67.0457 49.2814 69.4537 49.2814C71.8617 49.2814 73.2988 50.65 73.2988 52.9418C73.2988 55.2336 71.8617 56.6222 69.4537 56.6222ZM69.4537 49.3914C67.1145 49.3914 65.7179 50.7185 65.7179 52.9427C65.7179 55.1669 67.0792 56.513 69.4537 56.513C71.8282 56.513 73.1895 55.2119 73.1895 52.9427C73.1895 50.6734 71.7929 49.3914 69.4537 49.3914Z" fill="black"/>
<path d="M69.4537 60.1812C67.6588 60.1812 65.0978 59.9082 63.0854 58.6071C61.1469 57.3537 60.1639 55.4477 60.1639 52.9418C60.1639 50.4359 61.1469 48.5446 63.0854 47.2938C65.0995 45.9945 67.6606 45.7223 69.4537 45.7223C71.2468 45.7223 73.8121 45.9953 75.8323 47.2938C77.7776 48.5454 78.764 50.4454 78.764 52.9418C78.764 55.4381 77.7776 57.3529 75.8323 58.6071C73.8139 59.9082 71.2493 60.1812 69.4537 60.1812ZM69.4537 45.9728C67.6932 45.9728 65.182 46.2389 63.2187 47.5053C61.3559 48.7066 60.4116 50.5356 60.4116 52.9426C60.4116 55.3497 61.3559 57.1925 63.2187 58.3974C65.1812 59.6655 67.6924 59.9316 69.4537 59.9316C71.2149 59.9316 73.7304 59.6655 75.6981 58.3974C77.5669 57.1925 78.5146 55.3575 78.5146 52.9426C78.5146 50.5278 77.5669 48.7075 75.6981 47.5061C73.7287 46.2398 71.2158 45.9737 69.4537 45.9737V45.9728ZM69.4537 56.6932C67.0027 56.6932 65.5389 55.2908 65.5389 52.9426C65.5389 50.5945 67.0027 49.212 69.4537 49.212C71.9047 49.212 73.3684 50.6066 73.3684 52.9426C73.3684 55.2786 71.9047 56.6932 69.4537 56.6932ZM69.4537 49.4616C67.1583 49.4616 65.7875 50.7627 65.7875 52.9426C65.7875 55.1226 67.1239 56.4427 69.4537 56.4427C71.7834 56.4427 73.1198 55.1668 73.1198 52.9426C73.1198 50.7185 71.749 49.4616 69.4537 49.4616Z" fill="black"/>
<path d="M53.9323 17.133C54.4709 17.133 54.9075 16.6929 54.9075 16.1501C54.9075 15.6072 54.4709 15.1671 53.9323 15.1671C53.3937 15.1671 52.957 15.6072 52.957 16.1501C52.957 16.6929 53.3937 17.133 53.9323 17.133Z" fill="white"/>
<path d="M69.469 16.7204C69.8419 16.7204 70.1441 16.4157 70.1441 16.0399C70.1441 15.6641 69.8419 15.3595 69.469 15.3595C69.0962 15.3595 68.7939 15.6641 68.7939 16.0399C68.7939 16.4157 69.0962 16.7204 69.469 16.7204Z" fill="white"/>
<path d="M19.7689 15.994L19.4739 16.2913L13.6973 16.3407L13.6998 15.9238L19.7689 15.994Z" fill="white"/>
<path d="M20.2461 15.994V16.2255H21.9102L21.9111 16.118L21.8663 16.0148L20.2461 15.994Z" fill="white"/>
<path d="M23.5081 16.0148L23.478 16.118L23.4935 16.2255L25.0707 16.2003V16.04L23.5081 16.0148Z" fill="white"/>
<path d="M25.9987 16.0356L26.0167 16.1205L26.0786 16.1569L31.8406 16.287V15.9021L25.9987 16.0356Z" fill="white"/>
</g>
<defs>
<clipPath id="clip0_1118_45245">
<rect width="86" height="63" fill="white"/>
</clipPath>
</defs>
</svg>
