<svg width="243" height="55" viewBox="0 0 243 55" fill="none" xmlns="http://www.w3.org/2000/svg">
<g clip-path="url(#clip0_752_23236)">
<path d="M32.7454 54.6617H18.5267L18.8007 51.4139C18.8564 50.7628 18.9073 49.9169 18.9558 48.8966C15.232 51.6805 11.1761 52.2188 6.22082 52.8776C5.74081 52.9417 5.25109 53.0057 4.74683 53.075L2.691 53.3569L0.438803 48.1994L2.78555 46.8716C4.69107 45.7949 6.60144 44.3107 8.02695 42.8035L8.08271 42.7445C9.85246 40.9758 11.3168 38.8379 12.4489 36.8718H2.65464L0.128489 30.1967H4.57471L4.61349 29.6149C4.65228 29.033 4.68622 28.4101 4.71774 27.7564C4.94078 23.1474 4.9626 17.6925 4.9626 14.009C4.79289 13.8552 4.54561 13.6706 4.19651 13.4681L0 11.0457L4.03408 8.33106C5.44261 7.38518 6.80751 6.09579 7.88149 4.70387L9.81852 2.19432L12.0247 4.44241C12.8004 5.23193 14.8029 6.37264 16.4127 7.28777C16.4757 7.32365 16.5363 7.35698 16.5969 7.39287H34.4691C35.8412 6.35982 36.9395 5.32421 37.4171 4.60134L39.2959 1.74829L41.6766 4.14506C43.2767 5.75486 45.2937 7.28777 47.2113 8.34388L51.5824 10.756L47.4004 13.5194C46.9786 13.7988 46.6683 14.0602 46.3725 14.3576C46.2537 20.5046 46.4283 26.8797 46.4865 28.7741V28.7997C47.3447 29.6046 48.2247 30.3403 48.9011 30.8555L52.2442 33.4138L48.7775 35.7798C47.6235 36.5668 45.5773 38.5021 45.2064 38.961L44.7458 39.5813C45.8343 40.0068 47.0392 40.4349 48.3944 40.8758L52.8673 42.3369L49.5581 45.836C47.7108 47.7893 46.1568 50.0143 44.8428 51.9471L43.7009 53.6286L41.8124 53.0852C37.691 51.9009 34.6436 49.681 32.452 47.8764L32.4278 47.8559C32.4108 47.8405 32.3939 47.8277 32.3769 47.8123C32.4181 49.417 32.469 50.6526 32.5223 51.4523L32.743 54.654V54.6617H32.7454ZM24.6142 48.6941H26.7573C26.6846 46.2256 26.6434 43.1854 26.6215 40.6836L26.5803 36.1617H26.5318V31.3656L26.1755 30.9042H26.5318V26.9797C26.5318 26.5747 26.1076 25.6698 25.71 24.8828C25.3488 25.6801 24.99 26.5465 24.973 27.0181V27.7385C24.973 29.0842 24.973 30.4659 24.9536 31.8706L25.0263 31.7655L24.8372 41.2398C24.7912 43.5161 24.7209 46.3153 24.6166 48.6967H24.6142V48.6941ZM35.931 43.1829C37.3516 44.3492 39.1965 45.7257 41.4899 46.6947C41.856 46.1769 42.2366 45.6514 42.6366 45.1208C40.6802 44.3492 39.0341 43.5674 37.5383 42.7112L37.5068 42.6932C35.0679 41.2501 32.3817 38.8302 30.2459 36.1643H29.0362L31.3732 38.479C31.9526 39.0532 32.5078 39.671 33.046 40.2708C33.926 41.2501 34.8352 42.26 35.931 43.1829ZM19.2419 36.1617C17.9982 38.8635 16.1606 42.219 13.6756 45.2002C14.8126 44.6952 15.8381 44.0159 16.8297 43.0572C18.0831 41.8114 18.9001 40.6246 19.6928 39.4788L21.9862 36.1617H19.2419ZM10.4101 26.8361H12.3035V24.7547H12.3277L12.4732 11.8147C11.7653 11.4046 11.0719 10.9867 10.4246 10.5612C10.2719 10.7176 10.1143 10.8688 9.95671 11.0201C10.0634 11.1841 10.1604 11.3533 10.2501 11.525L10.6064 12.2018V12.9759C10.6064 16.3827 10.6064 21.9042 10.4076 26.8361H10.4101ZM38.9832 25.8903H40.7723C40.7044 22.6424 40.6438 17.6977 40.7626 13.0374L40.7917 11.9044L41.2111 11.4302C40.7796 11.1072 40.3529 10.7714 39.9384 10.4254C39.6668 10.6791 39.3905 10.9252 39.1117 11.161L39.022 19.1024L38.9832 25.8851V25.8903ZM31.5623 23.9985H33.349L33.3612 22.0657H30.6823C30.995 22.6835 31.3053 23.3269 31.5623 23.9985ZM17.9788 23.9985H19.9183C20.1583 23.3269 20.4443 22.6809 20.728 22.0657H18.0006L17.9788 23.9985ZM30.4762 16.0981H33.4121L33.4339 14.0705H31.6181C31.3829 14.5319 31.1162 14.9907 30.8447 15.4573C30.7235 15.6675 30.5999 15.8802 30.4762 16.0981ZM18.0685 16.0981H20.9777C20.8468 15.829 20.711 15.5598 20.5753 15.2932C20.3668 14.8805 20.1607 14.4755 19.974 14.0705H18.0928L18.0709 16.0981H18.0685Z" fill="black"/>
<path d="M89.6831 55L87.6734 54.6744C82.0853 53.7696 78.1846 51.7547 75.8984 50.2244L75.8427 50.1859C74.7153 49.3913 73.7747 48.5582 72.9383 47.7533C68.5648 52.5032 60.9961 53.9849 50.6442 54.6539L48.5811 54.7872L46.4841 49.0222L49.5314 48.1762C57.3959 45.9897 60.8385 42.4189 62.4676 39.0942H48.3944L46.2877 32.4165H64.138C64.1453 32.2935 64.1525 32.1679 64.1598 32.0449H52.3776L50.2733 25.3672H64.3295V25.2314H52.5109L52.0188 23.6703H48.2781L48.7047 20.2917C48.7363 20.0482 48.7653 19.8252 48.792 19.6201C48.9496 18.4128 49.0126 17.9309 48.9496 16.9465C48.8575 16.8799 48.7363 16.7953 48.5738 16.6876L44.7361 14.1499L48.5787 11.6224C49.946 10.7226 51.1024 9.62549 52.2103 8.16948L54.1425 5.63173L56.3632 7.89008C57.0929 8.63346 58.8215 9.82287 60.3464 10.6534H61.9682L56.9329 8.21306L63.8883 5.87269C66.1017 5.12931 67.7139 4.409 68.9648 3.60922L70.3685 2.70947L71.8013 3.55539C73.0401 4.28595 75.0669 5.28568 77.6948 5.89576L84.369 7.43892L86.1509 4.9268L88.4467 7.61579C89.5086 8.85903 91.8844 10.4868 93.7924 11.7941L98.275 14.865L93.3487 17.0491C93.0578 17.1772 92.9269 17.3131 92.8881 17.3695L92.8833 17.3951C92.6723 18.6025 92.1802 19.5355 91.5426 20.2687L94.0809 22.3219L90.6892 24.6187C90.3401 24.8546 89.9086 25.1647 89.4601 25.5005C89.8504 25.8722 90.2165 26.1978 90.5486 26.449L93.9063 29.0047L90.9511 31.0195C91.9014 31.9423 92.8226 32.7575 93.5451 33.306L96.9076 35.8617L93.4263 38.2354C92.3523 38.9686 90.8104 40.2067 89.8189 41.232C90.8056 41.4525 91.8335 41.6473 92.8905 41.8139L97.8313 42.5855L94.6554 46.6613C93.533 48.1019 91.4432 51.3472 90.6044 53.08L89.6759 54.9949L89.6831 55ZM78.9409 45.2002C80.5168 46.2486 83.0526 47.579 86.643 48.4069C86.9412 47.8943 87.2637 47.3585 87.5982 46.8279C85.0212 46.1922 82.7132 45.3873 80.7883 44.4516L80.7543 44.4363C79.0355 43.5698 75.0814 41.3525 73.0983 38.3867H71.4837L71.6849 35.731L70.3685 33.1292H71.8401C71.8619 32.6165 71.8789 32.0807 71.8983 31.5194V31.3374H71.8813L71.9031 30.1992C71.9031 30.0352 71.908 29.8711 71.9128 29.7096L71.9419 28.2895C71.9686 26.9565 71.9952 25.7056 72.0316 24.5239H72.0219L72.0534 23.8369C72.0728 23.2396 72.0971 22.6603 72.1237 22.0989L72.2619 19.2689H72.2983C72.3177 19.0408 72.3395 18.8152 72.3637 18.5922L72.3783 18.464C71.7189 18.159 71.0934 17.8386 70.4946 17.5105C70.2982 17.6104 70.0946 17.713 69.8909 17.8129V18.9408C69.8909 19.3561 69.9006 19.7637 69.9128 20.1969C69.9249 20.6327 69.9346 21.0838 69.9346 21.5452V22.2194C69.9637 23.4934 69.9734 24.7725 69.9661 26.085H70.08L69.9321 29.2174C69.9224 29.3969 69.9152 29.5763 69.9079 29.7583L69.874 31.3425H69.8352C69.823 31.6193 69.8109 31.9013 69.7988 32.1833C69.7867 32.5011 69.7673 32.819 69.743 33.1343H69.9758L69.1927 36.7769C69.1539 36.9589 69.1127 37.1409 69.0691 37.3203L68.8485 38.3918H68.7879C67.9054 41.4602 66.4557 44.1107 64.4217 46.3639C67.6242 45.1796 69.1636 43.6519 70.1018 41.8626L71.8255 38.5687L74.4632 41.0962C74.856 41.473 75.2438 41.8626 75.6172 42.2394C76.6209 43.252 77.656 44.2978 78.9385 45.2053V45.2002H78.9409ZM77.5154 32.4191H80.1386C79.981 32.2884 79.8234 32.1653 79.6682 32.0474H77.5276C77.5227 32.173 77.5179 32.2961 77.5154 32.4191ZM77.6536 25.3698H79.1131C79.1616 25.3237 79.2076 25.2775 79.2537 25.2339H77.6561C77.6561 25.2801 77.6561 25.3237 77.6536 25.3698ZM54.6104 17.7053H55.8347V17.6463L54.6056 17.2977C54.6056 17.4387 54.6104 17.5745 54.6104 17.7053ZM54.2855 14.5216L54.4189 14.7574L54.4819 15.4187C54.5522 16.157 54.591 16.7517 54.6056 17.2746L55.8347 16.8312V14.8138C55.4638 14.5754 55.0953 14.3267 54.7389 14.0755C54.5886 14.2268 54.4383 14.3754 54.2855 14.5216ZM86.0491 16.0673C86.0369 16.3441 86.02 16.621 86.0006 16.9004C86.8782 16.6107 87.2273 16.38 87.3412 16.2877C87.4309 15.7545 87.5934 15.2419 87.8188 14.7574C87.4164 14.46 87.0309 14.1652 86.6673 13.8756C86.4733 14.0909 86.2794 14.296 86.0879 14.4908C86.0879 14.9881 86.0733 15.4982 86.0515 16.0109L86.1267 16.0288L86.0491 16.0673ZM69.9249 11.4122H70.0679L70.5116 13.3091L70.9649 11.4122H72.1262V10.3099C71.5225 10.0536 70.9673 9.79467 70.4679 9.5409C70.3006 9.63061 70.1285 9.71777 69.9515 9.80492L69.9273 11.4122H69.9249ZM79.9155 10.656H81.6829C82.2017 10.2048 82.7447 9.61523 83.3459 8.84365L79.9179 10.656H79.9155Z" fill="black"/>
<path d="M86.6842 24.0035L84.4393 21.5606L82.7059 23.2294L78.9361 18.764L84.6502 13.2655L84.6624 13.2783L84.6793 13.2629L85.7242 14.3985L86.5873 15.3136L90.7911 19.8842L86.6842 24.0035Z" fill="black"/>
<path d="M85.2951 29.4763L84.0878 28.2536L83.2999 29.0611L79.3482 24.7725L84.0975 19.9226L86.0491 21.9579L89.191 25.134L85.2951 29.4763Z" fill="black"/>
<path d="M30.1344 27.136L25.5476 22.2861V10.7227L33.446 19.0742V22.8552L30.1344 27.136Z" fill="black"/>
<path d="M21.0238 27.5564L17.7121 23.2756V19.4946L25.6106 11.1431V22.7065L21.0238 27.5564Z" fill="black"/>
<path d="M27.9016 14.3216L22.5341 12.6785L22.7596 11.0123L24.0057 6.3572L21.4771 3.31446L28.8446 0L34.5951 8.36176L30.1853 8.93596L27.9016 14.3216Z" fill="black"/>
<path d="M32.3138 54.2335H18.9704L19.2055 51.4497C19.2758 50.6089 19.3413 49.4528 19.4019 48.0122C15.5666 51.2036 11.3725 51.7624 6.17476 52.452C5.69474 52.516 5.20502 52.5801 4.70076 52.6493L2.93828 52.8903L0.969726 48.3813L2.97949 47.2432C4.91895 46.146 6.86326 44.6362 8.31544 43.1007L8.36392 43.052C10.3422 41.0757 11.9398 38.6814 13.1689 36.4436H2.92858L0.724869 30.6196H4.9529L5.01835 29.6404C5.05714 29.0559 5.09108 28.4305 5.12502 27.7768C5.35291 23.0781 5.36988 17.5079 5.3723 13.8192C5.17593 13.6167 4.86804 13.3629 4.3953 13.0912L0.797599 11.0148L4.25469 8.68728C5.69716 7.71575 7.09842 6.39561 8.19907 4.97037L9.85973 2.81969L11.7507 4.74479C12.5653 5.57533 14.5969 6.72885 16.2284 7.65936C16.3206 7.71063 16.4127 7.76446 16.5024 7.81573H34.6048C36.0643 6.72885 37.2425 5.62147 37.754 4.8422L39.3662 2.39673L41.4075 4.45256C43.0342 6.09057 45.0828 7.64654 47.0344 8.7206L50.7799 10.7867L47.1968 13.1553C46.6853 13.4936 46.3337 13.8038 45.9846 14.1704C45.861 20.3814 46.0355 26.8694 46.0961 28.7868L46.1034 28.9944C47.0125 29.8583 47.9605 30.6504 48.6781 31.2015L51.5436 33.3932L48.5714 35.4208C47.3544 36.2514 45.2573 38.2431 44.9034 38.6943L44.0985 39.776C45.3276 40.2733 46.7047 40.768 48.2853 41.2859L52.1182 42.5368L49.2817 45.5359C47.4126 47.5123 45.8464 49.7553 44.5252 51.7009L43.5458 53.1415L41.9263 52.6775C37.8728 51.5138 34.8715 49.3221 32.709 47.5456L32.6872 47.5277C32.4351 47.3149 32.1926 47.1022 31.9599 46.8894C32.006 48.9658 32.0641 50.5371 32.1296 51.4907L32.3187 54.2335H32.3138ZM24.1924 49.1196H27.1743C27.0943 46.5869 27.0482 43.3314 27.024 40.6783L26.9803 35.7361H26.9343V26.9822C26.9343 26.3618 26.2603 25.0596 25.7682 24.106C25.7415 24.0548 25.7148 24.0061 25.6906 23.9548C25.676 23.9881 25.6591 24.0189 25.6445 24.0522C25.1742 25.0622 24.5899 26.3182 24.5681 27.0129V27.7384C24.5681 29.5122 24.5681 31.345 24.5245 33.2112L24.5972 33.1087L24.4348 41.2295C24.3863 43.6467 24.3087 46.6536 24.1948 49.1221H24.1924V49.1196ZM35.6812 43.5186C37.1843 44.7541 39.1553 46.2204 41.6281 47.2098C42.1493 46.4665 42.7069 45.6974 43.3033 44.9259C41.1311 44.0928 39.342 43.2597 37.7298 42.3368L37.7031 42.3215C35.257 40.8757 32.5563 38.4277 30.435 35.7387H28.0179L31.0968 38.7917C31.6666 39.3582 32.1951 39.9452 32.7551 40.5655C33.6448 41.555 34.5636 42.5778 35.6812 43.5186ZM18.9897 35.7361C17.5861 38.8301 15.3751 42.8546 12.2768 46.1588C14.095 45.6026 15.6515 44.7746 17.1012 43.3699C18.3812 42.0959 19.2128 40.8937 20.0152 39.7299L22.7765 35.7361H18.9873H18.9897ZM40.0499 37.8458C40.1662 37.9124 40.285 37.9791 40.4062 38.0457C39.8293 37.5305 39.1165 36.964 38.3868 36.4436H38.0644C38.7068 36.9665 39.3759 37.4459 40.0499 37.8458ZM42.2099 33.042C42.45 33.2291 42.69 33.424 42.9251 33.6213C43.0585 33.4957 43.1967 33.3701 43.3348 33.2445C43.107 33.0343 42.8766 32.819 42.6488 32.5985C42.5033 32.7472 42.3554 32.8959 42.2075 33.0446H42.2099V33.042ZM31.7708 30.6222H33.6909V30.2966H31.7708V30.6222ZM17.5424 30.6222H19.7243V30.2966H17.54V30.6222H17.5424ZM9.98822 27.2616H12.7035V25.1801H12.7253L12.878 11.5634C12.0053 11.0584 11.1446 10.5457 10.3713 10.0228C10.0634 10.3432 9.74336 10.656 9.4185 10.9584C9.59791 11.2096 9.76033 11.466 9.90095 11.7351L10.2064 12.3145V12.9784C10.2064 16.4825 10.2064 22.2348 9.98822 27.2641V27.2616ZM38.5759 26.3157H41.1845C41.1117 23.0884 41.0414 17.9129 41.1651 13.0502L41.1893 12.0786L41.8221 11.3635C41.1723 10.8918 40.5347 10.3919 39.9214 9.869C39.5311 10.2484 39.1189 10.6124 38.7092 10.9559L38.6171 19.0998L38.5759 26.3131V26.3157ZM31.2859 24.4239H33.7515L33.766 21.6375H30.0035C30.0035 21.6375 30.0083 21.6478 30.0107 21.6503C30.4592 22.5167 30.9393 23.4447 31.2859 24.4239ZM17.5715 24.4239H20.2019C20.5074 23.5011 20.9195 22.6193 21.3026 21.7939C21.3268 21.7426 21.351 21.6913 21.3753 21.6375H17.603L17.5715 24.4239ZM29.778 16.5235H33.8097L33.8412 13.6423H31.3732C31.1162 14.1704 30.8108 14.6959 30.5005 15.2342C30.2604 15.6494 30.0083 16.0852 29.778 16.5235ZM17.6612 16.5235H21.6274C21.4141 16.0442 21.1716 15.5648 20.9292 15.0906C20.6795 14.601 20.4371 14.1217 20.2286 13.6423H17.6927L17.6612 16.5235ZM25.3245 12.9322C25.453 13.1835 25.5839 13.4475 25.7173 13.7243C25.8676 13.4475 26.0154 13.1835 26.1609 12.9322H25.3245Z" fill="white"/>
<path d="M89.4552 54.5308L87.7315 54.2514C82.2114 53.3567 78.3664 51.3727 76.1117 49.8628L76.0633 49.8295C74.8269 48.958 73.8111 48.0326 72.9141 47.1533C68.6715 52.0469 61.0858 53.5516 50.6151 54.2283L48.8453 54.3436L47.0174 49.3143L49.6284 48.5888C58.1329 46.2254 61.5682 42.2496 63.1101 38.6685H48.6805L46.8428 32.8445H64.5041C64.5307 32.5446 64.5501 32.2421 64.5623 31.9371C64.5671 31.832 64.5719 31.7243 64.5768 31.6218H52.6637L50.8284 25.7978H64.7295V24.8083H52.7994L52.3073 23.2472H48.7362L49.1023 20.3532C49.1338 20.1096 49.1629 19.8892 49.1896 19.6815C49.3569 18.3896 49.4223 17.8949 49.3375 16.7234C49.2211 16.626 49.0514 16.5055 48.7872 16.3286L45.4973 14.1549L48.792 11.9888C50.2005 11.0634 51.386 9.93555 52.5255 8.4411L54.1813 6.26735L56.0844 8.2027C56.8505 8.98197 58.6711 10.2355 60.2494 11.0839H63.8131C63.7889 11.0711 63.7622 11.0583 63.7356 11.0455L58.0481 8.28986L64.0095 6.28529C66.2544 5.52909 67.8957 4.79853 69.1733 3.98081L70.3782 3.20923L71.6073 3.93467C72.868 4.68061 74.936 5.69828 77.6124 6.31862L84.3011 7.8669L78.2112 11.0865H81.8259C82.6138 10.4277 83.4381 9.47414 84.4199 8.08735L86.1824 5.60343L88.151 7.90791C89.2492 9.19217 91.6493 10.8379 93.5766 12.1606L97.4192 14.7932L93.1984 16.6644C92.6723 16.8977 92.5196 17.1746 92.505 17.2617L92.4953 17.3284C92.265 18.6382 91.6929 19.6021 90.9486 20.3275L93.3875 22.3013L90.4807 24.27C90.0225 24.5802 89.4262 25.0159 88.8298 25.4697C89.3704 26.0029 89.8746 26.4643 90.3207 26.8052L93.1984 28.9969L90.3038 30.9707C91.3971 32.0576 92.4857 33.0342 93.3148 33.6648L96.1973 35.8565L93.2154 37.8918C91.9935 38.7249 90.1728 40.2091 89.2055 41.3114L89.0407 41.4985C90.248 41.7907 91.5232 42.042 92.8396 42.247L97.0749 42.9084L94.3548 46.4023C93.2202 47.8583 91.1062 51.142 90.2553 52.8979L89.4601 54.5385L89.4552 54.5308ZM78.7227 45.5589C80.3664 46.6535 83.0405 48.0531 86.8394 48.8888C87.2685 48.1377 87.7582 47.3328 88.2576 46.551C85.4769 45.8999 82.9968 45.0591 80.9556 44.0645L80.9265 44.0517C79.5785 43.3724 75.2584 41.0269 73.3092 37.961H71.9201L72.0946 35.6412L71.0401 33.5546H72.2256C72.2546 32.9137 72.2765 32.2396 72.3007 31.527V30.9117H72.2934L72.308 30.2068C72.308 30.0453 72.3128 29.8813 72.3177 29.7198L72.3468 28.2971C72.3759 26.7975 72.4074 25.403 72.4486 24.0957H72.4462L72.4583 23.8522C72.4777 23.2575 72.5019 22.6781 72.5286 22.1168L72.6474 19.6892H72.6716C72.6983 19.3329 72.7274 18.9817 72.7662 18.6357L72.8147 18.1922C71.9952 17.8257 71.2291 17.4283 70.4994 17.0284C70.1043 17.2335 69.6921 17.4386 69.263 17.6385L69.4861 17.8744V18.933C69.4861 19.3534 69.4958 19.7636 69.5079 20.1993C69.52 20.6326 69.5297 21.0812 69.5297 21.5349V22.2142C69.5612 23.624 69.5709 25.039 69.5588 26.5002H69.6533L69.5273 29.184C69.5176 29.366 69.5103 29.548 69.5006 29.7326L69.4764 30.904H69.4473C69.4279 31.3116 69.4109 31.7295 69.3915 32.1524C69.3721 32.619 69.3406 33.0855 69.297 33.5495H69.4691L68.8 36.6717C68.7612 36.8537 68.72 37.0331 68.6788 37.21L68.526 37.9534H68.4897C67.4739 41.6703 65.6217 44.7771 62.8992 47.302C63.5077 47.1277 64.075 46.9406 64.6059 46.7406C67.5296 45.6435 69.3358 44.2003 70.4582 42.0573L71.9371 39.2351L74.199 41.4011C74.5868 41.7728 74.9723 42.1624 75.3457 42.5367C76.3615 43.562 77.4136 44.6207 78.7252 45.5512V45.5589H78.7227ZM82.9944 39.4273C83.4356 39.6426 83.9084 39.8503 84.4078 40.0476C83.8866 39.558 83.3217 39.071 82.7932 38.6685H81.6053C82.0513 38.93 82.5168 39.1863 82.9944 39.4247V39.4273ZM86.7448 35.4361C86.9824 35.6412 87.2152 35.8488 87.4431 36.059C87.6103 35.9103 87.78 35.7642 87.9497 35.6181C87.7025 35.3848 87.46 35.1516 87.22 34.9157C87.06 35.0952 86.9024 35.2669 86.7448 35.4335V35.4361ZM77.096 32.8445H81.2634C80.781 32.4036 80.2719 31.9755 79.7967 31.6192H77.1372V31.6577C77.1227 32.0653 77.1106 32.46 77.096 32.8445ZM83.729 28.3612C83.9932 28.5867 84.2551 28.8174 84.512 29.0533C84.6696 28.9225 84.832 28.7944 84.9921 28.6662C84.7302 28.3996 84.466 28.1253 84.1969 27.8434C84.0441 28.0151 83.889 28.1894 83.729 28.3612ZM77.2391 25.7952H79.2682C79.5931 25.4876 79.8937 25.1851 80.1749 24.8852C80.141 24.857 80.1046 24.8314 80.0707 24.8058H77.2633C77.2536 25.1287 77.2439 25.4594 77.2366 25.7952H77.2391ZM83.9932 21.5477C84.2841 21.8015 84.5508 22.045 84.7811 22.2654C84.9411 22.1373 85.106 22.004 85.2733 21.8732C85.1957 21.7963 85.1205 21.7194 85.0454 21.6425L84.449 21.0427C84.2987 21.2119 84.1484 21.3811 83.9932 21.5477ZM79.3216 18.9843H79.5422C79.6222 18.9074 79.7022 18.8305 79.7798 18.7536L79.324 18.9843H79.3216ZM61.0761 18.9843H62.0846L61.0761 18.6972V18.9843ZM54.2007 18.1307H56.2395V17.3181L55.9559 17.2386L56.2395 17.1361V14.5727C55.7135 14.2395 55.1898 13.8857 54.6952 13.5269C54.3946 13.8447 54.0867 14.1472 53.7716 14.4369L54.0286 14.8906L54.0843 15.4571C54.1958 16.6157 54.2273 17.3976 54.2007 18.1281V18.1307ZM85.6854 14.3087V14.3958C85.6854 15.4007 85.6394 16.4568 85.5521 17.4873L86.0127 17.3412C87.0721 17.0028 87.4867 16.7183 87.6394 16.5798C87.7025 16.5209 87.7122 16.5132 87.7315 16.4132C87.8309 15.7826 88.0419 15.1777 88.3449 14.624C87.7267 14.1728 87.1497 13.7345 86.6236 13.3013C86.3085 13.6653 85.9982 14.0011 85.6878 14.3087H85.6854ZM69.5152 11.8401H70.0679L70.5116 13.7371L70.9649 11.8401H72.5286V10.0227C71.7601 9.70741 71.0667 9.38186 70.4631 9.06913C70.1624 9.23062 69.8497 9.38955 69.5248 9.54848L69.5515 9.57668L69.5176 11.8427L69.5152 11.8401Z" fill="white"/>
<path d="M86.6963 23.4036L84.4563 20.9684L82.735 22.6243L79.5009 18.7972L84.6381 13.855L84.6502 13.8678L84.6623 13.855L85.4357 14.6983L86.2988 15.6109L90.2165 19.8712L86.6963 23.4036Z" fill="white"/>
<path d="M85.283 28.874L84.0854 27.6641L83.3071 28.4587L79.9204 24.7828L84.0951 20.5173L85.7678 22.263L88.6213 25.1494L85.283 28.874Z" fill="white"/>
<path d="M30.1029 26.5027L25.95 22.109V11.7529L33.0436 19.2508V22.7037L30.1029 26.5027Z" fill="white"/>
<path d="M21.0528 26.9206L18.1146 23.1242V19.6714L25.2081 12.1709V22.5295L21.0528 26.9206Z" fill="white"/>
<path d="M27.5331 14.1472L22.9341 12.7399L23.1547 11.0994L24.4518 6.25199L22.1487 3.47585L28.7065 0.525391L33.8678 8.02842L29.9113 8.54366L27.5331 14.1472Z" fill="white"/>
<path d="M86.3376 22.6963H67.8933V40.5195H86.3376V22.6963Z" fill="white"/>
<path d="M34.7358 13.1016H16.2915V30.9248H34.7358V13.1016Z" fill="white"/>
<path d="M38.8838 40.0861C41.5239 41.601 44.5203 42.7366 47.5653 43.7287C45.507 45.905 43.8076 48.3658 42.5542 50.2089C38.9298 49.1682 36.2001 47.1815 34.1879 45.5256C32.2193 43.8696 30.8762 42.0727 29.4459 40.6526C29.4919 45.6204 29.5792 49.7372 29.715 51.6751H21.6153C21.7947 49.545 21.928 45.6666 22.0177 41.173C21.1668 42.4034 20.2286 43.7748 18.7522 45.2411C14.9048 48.9785 10.6089 49.263 4.39045 50.114L4.12135 49.4988C6.04627 48.4094 8.23786 46.8022 10.027 44.9104C13.2926 41.6446 15.6636 37.292 17.1424 33.8878H4.565L4.2959 33.1778H22.105C22.1486 31.3321 22.1486 29.5352 22.1486 27.7383H15.1229V29.8197H7.42813C7.46935 29.2045 7.50571 28.5637 7.53723 27.91C7.78694 22.7704 7.78694 16.6285 7.78694 12.9783C7.33843 12.1272 6.53356 11.4172 5.54928 10.8481C7.0257 9.85351 8.68151 8.38725 10.0682 6.59032C11.2755 7.82075 13.8259 9.19216 15.8842 10.3764H35.3491C36.5564 9.5254 38.7044 7.86945 39.7347 6.30835C41.6136 8.20013 43.8512 9.85608 45.9095 10.9917C44.8355 11.7017 44.2537 12.3631 43.5821 13.1218C43.4488 18.3742 43.5361 24.5699 43.6718 28.8764H36.1103V27.7408H29.3537V33.1803H38.5274C39.6911 31.9986 41.5699 30.2939 42.5978 28.9225C43.9846 30.5785 45.9531 32.2806 47.2501 33.2752C45.8634 34.2211 43.4924 36.4461 43.0003 37.1074C42.0621 36.0667 40.4499 34.7901 39.1068 33.8904H32.1272C33.7369 35.9718 36.2437 38.5275 38.8838 40.0886V40.0861ZM22.1486 26.9821C22.1923 24.4751 24.7572 21.3529 24.7136 19.0817H15.2151L15.1254 26.9821H22.1511H22.1486ZM15.3023 11.0839L15.2126 19.0791H24.7112C24.7112 15.7211 22.0589 12.9296 22.0129 11.0839H15.2999H15.3023ZM36.154 26.9821L36.1976 19.0817H26.5246C26.4785 21.3529 29.3513 24.4751 29.3513 26.9821H36.154ZM26.527 19.0791H36.2001L36.2897 11.0839H29.6689C29.5356 12.9757 26.573 15.7672 26.5294 19.0791H26.527Z" fill="black"/>
<path d="M67.069 13.6397L67.1126 10.6585C66.3078 9.85363 65.8156 9.23842 64.7416 8.71805C66.7102 8.05669 68.7248 7.25179 70.4243 6.16235C71.9467 7.0621 74.228 8.14898 77.0912 8.81289C76.376 9.19228 75.4814 10.0433 74.9432 10.6098V13.6372H82.5944C83.8478 12.7861 85.0115 11.507 86.3521 9.61523C87.6055 11.0815 89.8431 12.6426 92.2578 14.2985C90.871 14.9138 90.2431 15.9545 90.1098 16.8542C89.8868 18.1308 89.0795 19.0306 86.7085 19.7867C87.6031 20.6865 88.4079 21.4888 89.1692 22.104C88.0516 22.8602 86.083 24.3752 85.1424 25.2263C86.5291 26.6925 87.7825 28.0178 88.9001 28.8688C87.5134 29.8147 84.9169 31.85 84.4248 32.5114C83.4841 31.422 81.8744 29.9557 80.5313 29.0585H74.759C74.7153 29.8634 74.7153 30.7145 74.7153 31.5655C74.6717 32.9369 74.6256 34.216 74.5359 35.3978H83.1714C84.5145 34.216 85.8551 32.8908 87.0188 31.14C88.5413 32.7959 90.4638 34.6416 91.8965 35.7284C90.5098 36.6743 88.5413 38.2841 87.4212 39.5607C86.4806 38.52 84.8708 37.005 83.5278 36.1078H75.0717C76.102 38.1432 79.1422 40.3195 81.9616 41.737C84.7811 43.1084 88.5388 44.1492 92.476 44.7644C91.2226 46.3742 89.031 49.7784 88.0903 51.7188C83.1229 50.9139 79.5882 49.1631 77.3966 47.6969C75.382 46.2768 73.9953 44.6695 72.565 43.2981C69.7915 48.5966 63.6168 50.8191 50.4624 51.6727L50.2393 51.0575C60.6203 48.1711 65.0059 42.7778 66.4363 36.1078H50.4187L50.1957 35.3978H66.572C66.7951 34.3109 66.9308 33.1753 66.9745 32.0397C67.0181 30.999 67.0642 30.0044 67.1078 29.0585H54.3995L54.1764 28.3485H67.1078C67.1539 26.2183 67.1539 24.2317 67.1078 22.245H54.5352L54.3122 21.535H67.1102C67.1102 20.6839 67.0666 19.8329 67.0666 18.9331C66.5744 18.4128 65.4108 17.2772 64.2471 16.9465C66.2156 16.2365 68.2739 15.3854 70.063 14.3908H58.6542V20.6839H51.4951C51.7642 18.5538 51.8976 18.0334 51.6745 15.7161C51.2721 15.006 50.78 14.6292 50.0648 14.155C51.7206 13.0656 53.1073 11.7428 54.4043 10.0382C55.568 11.2199 57.9851 12.781 59.6845 13.6346H67.0666V13.6397H67.069ZM70.9625 14.3959C72.708 15.3905 74.7662 16.4774 77.45 17.0926C76.5093 17.5669 75.7045 18.2282 75.1687 18.9383C75.079 19.7432 75.0353 20.5942 74.9893 21.5401H80.4489C81.2998 20.7839 82.1483 19.9303 82.9556 18.9844C83.1787 17.3746 83.2684 15.7187 83.2684 14.3959H70.9625ZM83.6247 24.6162C82.7738 23.7651 81.7459 22.8654 80.8052 22.2502H74.9432C74.8535 24.0958 74.8099 26.1286 74.7638 28.3536H80.1773C81.3847 27.2641 82.5483 26.0824 83.6223 24.6162H83.6247Z" fill="black"/>
<path d="M86.7642 19.8098L84.5581 17.4131L82.912 18.9947L82.9023 18.9819L84.5581 17.3875L84.5654 17.3951L86.7764 19.797L86.7642 19.8098Z" fill="white"/>
<path d="M85.1981 25.2495L84.0781 24.1165L83.3581 24.8496L83.3484 24.8368L84.0781 24.0908L84.0829 24.0959L85.2102 25.2367L85.1981 25.2495Z" fill="white"/>
<path d="M28.3695 17.9258V21.0505L29.9235 22.6962L30.6241 21.7914V20.3097L28.3695 17.9258Z" fill="black"/>
<path d="M22.7887 18.3462V21.471L21.2347 23.1141L20.534 22.2118V20.7301L22.7887 18.3462Z" fill="black"/>
<path d="M25.5257 11.6301L27.1379 5.6087L26.1706 4.44492L27.8822 3.67334L29.4968 6.0214L28.2628 6.18033L25.3269 13.1015L25.5257 11.6301Z" fill="black"/>
<path d="M15.2151 19.0793H21.7705" stroke="white" stroke-miterlimit="10"/>
<path d="M36.2001 19.0793H29.8701" stroke="white" stroke-miterlimit="10"/>
<path d="M22.1438 19.0279L21.9086 19.2766L21.5886 18.9998L21.9571 18.8562L22.1438 19.0279Z" fill="white"/>
<path d="M29.4095 19.0279L29.6447 19.2766L29.9647 18.9998L29.5986 18.8562L29.4095 19.0279Z" fill="white"/>
<path d="M22.7887 18.9844V19.1766L24.7136 19.1971V18.9844H22.7887Z" fill="white"/>
<path d="M28.3695 18.9844V19.1766L26.527 19.1971V18.9844H28.3695Z" fill="white"/>
<path d="M60.1645 17.5078L60.5985 19.9225L63.4592 19.3688L60.1645 17.5078Z" fill="white"/>
<path d="M78.9361 18.764L79.1809 19.369H80.798L79.7773 17.7053L78.9361 18.764Z" fill="white"/>
<path d="M133.217 43.6367H108.047V18.0464H117.556V37.0565H133.217V43.6367Z" fill="white"/>
<path d="M137.578 48.2482H103.686V13.4348H121.917V32.4449H137.578V48.2482ZM112.406 39.0251H113.192V22.6579H112.406V39.0251Z" fill="black"/>
<path d="M133.314 43.7392H107.948V17.9438H117.65V36.9539H133.311V43.7392H133.314ZM108.144 43.5341H133.12V37.1616H117.459V18.1515H108.147V43.5341H108.144Z" fill="black"/>
<path d="M137.675 48.3507H103.587V13.3323H122.012V32.3423H137.673V48.3507H137.675ZM112.506 38.9226H113.095V22.763H112.506V38.9226Z" fill="black"/>
<path d="M157.821 40.0169H147.035L145.688 43.6364H135.835L147.038 18.0461H157.824L169.027 43.6364H159.174L157.826 40.0169H157.821ZM155.331 33.4367L152.427 25.6133L149.523 33.4367H155.331Z" fill="white"/>
<path d="M175.846 48.248H156.199L154.851 44.6285H150.003L148.655 48.248H129.008L144.247 13.4347H152.265L152.43 13.427L152.594 13.4347H160.612L175.851 48.248H175.846ZM162.139 39.025H162.2L161.8 38.1098L162.141 39.025H162.139ZM142.657 39.025H142.718L143.06 38.1098L142.66 39.025H142.657Z" fill="black"/>
<path d="M169.174 43.7392H159.101L157.753 40.1197H147.098L145.751 43.7392H135.677L146.97 17.9438H157.882L169.174 43.7392ZM159.235 43.5341H168.869L157.758 18.1515H147.096L135.985 43.5341H145.62L146.968 39.9146H157.887L159.235 43.5341ZM155.475 33.5395H149.38L152.427 25.3315L155.475 33.5395ZM149.666 33.3344H155.188L152.427 25.898L149.666 33.3344Z" fill="black"/>
<path d="M175.999 48.3507H156.134L154.784 44.7337H150.068L148.72 48.3507H128.855L144.184 13.3323H152.197H152.43H152.657H160.67L175.999 48.3507Z" fill="black"/>
<path d="M201.857 36.1439C201.857 42.2114 197.949 43.6367 190.171 43.6367H172.331V18.0464H190.93C196.947 18.0464 200.957 19.0692 200.957 24.5907C200.957 27.6975 199.263 29.3073 196.635 30.1481V30.2584C199.748 31.0633 201.857 32.7807 201.857 36.1439ZM181.837 24.2985V27.7334H189.374C191.136 27.7334 191.655 27.0387 191.655 25.9416C191.655 24.8445 191.136 24.2959 189.374 24.2959H181.837V24.2985ZM192.244 35.4492C192.244 34.2419 191.658 33.6574 189.788 33.6574H181.837V37.423H189.788C191.725 37.423 192.244 36.6566 192.244 35.4492Z" fill="white"/>
<path d="M190.171 48.2481H167.969V13.4348H190.93C193.941 13.4348 197.394 13.6373 200.182 15.1395C202.526 16.4032 205.319 19.0691 205.319 24.5907C205.319 25.9672 205.091 27.8692 204.119 29.6995C205.496 31.4605 206.216 33.6676 206.216 36.1438C206.216 42.0089 203.382 44.8619 201.003 46.2231C198.518 47.6432 195.28 48.2507 190.169 48.2507H190.171V48.2481ZM176.692 39.0251H177.478V22.6579H176.692V39.0251ZM196.596 35.0544C196.603 35.1826 196.606 35.3133 196.606 35.4492C196.606 36.4489 196.412 37.505 195.973 38.4714C196.324 38.3663 196.618 38.2458 196.855 38.1125C197.156 37.9408 197.495 37.746 197.495 36.1464C197.495 35.7798 197.495 35.4287 196.596 35.057V35.0544ZM195.391 23.0501C195.76 23.8293 195.953 24.6701 196.004 25.4904C196.354 25.3238 196.501 25.1905 196.526 25.1521C196.54 25.1264 196.596 24.9572 196.596 24.5932C196.596 23.5628 196.438 23.4782 196.218 23.3602C196 23.2423 195.723 23.1398 195.389 23.0526L195.391 23.0501Z" fill="black"/>
<path d="M190.171 43.7392H172.234V17.9438H190.933C197.183 17.9438 201.057 19.0564 201.057 24.5907C201.057 27.4027 199.668 29.2381 196.814 30.1968C200.274 31.135 201.956 33.0806 201.956 36.1413C201.956 42.496 197.636 43.7392 190.171 43.7392ZM172.428 43.5341H190.171C199.864 43.5341 201.76 40.8246 201.76 36.1439C201.76 33.1447 200.077 31.2529 196.613 30.3583L196.538 30.3378V30.0712L196.608 30.0482C199.51 29.1202 200.86 27.3848 200.86 24.5907C200.86 19.2281 197.061 18.1489 190.93 18.1489H172.428V43.5316V43.5341ZM189.791 37.5256H181.742V33.5549H189.791C191.604 33.5549 192.344 34.1034 192.344 35.4492C192.344 36.9052 191.58 37.5256 189.791 37.5256ZM181.936 37.3205H189.791C191.864 37.3205 192.147 36.4207 192.147 35.4492C192.147 34.4059 191.752 33.7625 189.791 33.7625H181.936V37.3205ZM189.374 27.8385H181.74V24.1959H189.374C191.042 24.1959 191.755 24.7189 191.755 25.9442C191.755 27.2541 191.02 27.8385 189.374 27.8385ZM181.936 27.6309H189.376C191.301 27.6309 191.561 26.7773 191.561 25.9416C191.561 25.0162 191.19 24.401 189.376 24.401H181.936V27.6309Z" fill="black"/>
<path d="M190.171 48.3507H167.873V13.3323H190.933C195.299 13.3323 198.118 13.8629 200.363 15.1061C202.669 16.3853 205.418 19.0666 205.418 24.5907C205.418 26.4773 205.008 28.1871 204.228 29.661C205.597 31.4298 206.318 33.6599 206.318 36.1438C206.318 42.1652 203.357 45.0542 200.872 46.4179C197.767 48.1225 193.721 48.3533 190.171 48.3533V48.3507ZM176.789 38.9226H177.378V22.763H176.789V38.9226ZM196.7 35.2262C196.7 35.3005 196.703 35.3723 196.703 35.4492C196.703 36.3797 196.538 37.3563 196.169 38.2663C196.657 38.1023 196.931 37.9433 197.078 37.8331C197.166 37.7665 197.398 37.5947 197.398 36.1438C197.398 35.9875 197.386 35.7106 197.309 35.6209C197.27 35.5773 197.11 35.4184 196.703 35.2262H196.7ZM195.568 23.1987C195.864 23.8883 196.031 24.6163 196.092 25.334C196.32 25.2161 196.419 25.1264 196.448 25.0957C196.467 25.0393 196.499 24.8778 196.499 24.5907C196.499 23.8165 196.363 23.5704 196.363 23.5679C196.332 23.5346 196.16 23.3679 195.568 23.1962V23.1987Z" fill="black"/>
<path d="M237.974 30.8427C237.974 40.8604 229.746 44.1851 221.552 44.1851C213.358 44.1851 205.164 40.8578 205.164 30.8427C205.164 20.8275 213.358 17.5361 221.552 17.5361C229.746 17.5361 237.974 20.8634 237.974 30.8427ZM228.328 30.8427C228.328 26.7489 225.976 24.0805 221.552 24.0805C217.128 24.0805 214.776 26.7489 214.776 30.8427C214.776 34.9364 217.128 37.6433 221.552 37.6433C225.976 37.6433 228.328 34.9748 228.328 30.8427Z" fill="white"/>
<path d="M221.552 48.7966C208.754 48.7966 200.802 41.9165 200.802 30.8426C200.802 19.7688 208.754 12.9246 221.552 12.9246C234.35 12.9246 242.336 19.7893 242.336 30.8426C242.336 41.8959 234.372 48.7966 221.552 48.7966ZM231.358 25.0109C232.221 26.6669 232.689 28.6381 232.689 30.8426C232.689 33.0471 232.214 35.0466 231.346 36.7128C232.888 35.3157 233.613 33.424 233.613 30.8426C233.613 28.2613 232.891 26.4028 231.358 25.0109ZM211.726 25.0494C210.23 26.4336 209.525 28.3049 209.525 30.8426C209.525 33.3804 210.233 35.285 211.738 36.6769C210.883 35.0184 210.415 33.0471 210.415 30.8426C210.415 28.6381 210.878 26.6976 211.726 25.0494ZM221.552 28.6894C219.305 28.6894 219.137 29.5404 219.137 30.8401C219.137 31.6142 219.29 32.2192 219.559 32.4986C219.884 32.8369 220.611 33.0292 221.552 33.0292C223.799 33.0292 223.967 32.1628 223.967 30.8401C223.967 30.3966 223.913 29.5943 223.552 29.2226C223.225 28.8842 222.495 28.6894 221.552 28.6894Z" fill="black"/>
<path d="M221.552 44.2877C218.362 44.2877 213.806 43.7802 210.233 41.3552C206.805 39.0302 205.067 35.4928 205.067 30.8402C205.067 26.1877 206.805 22.6784 210.233 20.3585C213.809 17.9387 218.362 17.4312 221.552 17.4312C224.742 17.4312 229.303 17.9387 232.888 20.3585C236.328 22.6784 238.071 26.2056 238.071 30.8402C238.071 35.4748 236.328 39.0302 232.888 41.3552C229.305 43.7776 224.745 44.2877 221.552 44.2877ZM221.552 17.6388C218.388 17.6388 213.874 18.1412 210.337 20.5328C206.97 22.8117 205.26 26.28 205.26 30.8402C205.26 35.4005 206.97 38.8969 210.337 41.1809C213.872 43.5777 218.386 44.0801 221.552 44.0801C224.718 44.0801 229.239 43.5777 232.784 41.1809C236.163 38.8944 237.877 35.4159 237.877 30.8402C237.877 26.2646 236.163 22.8117 232.784 20.5328C229.237 18.1412 224.718 17.6388 221.552 17.6388ZM221.552 37.746C217.249 37.746 214.679 35.1647 214.679 30.8428C214.679 26.5209 217.249 23.9755 221.552 23.9755C225.855 23.9755 228.425 26.5414 228.425 30.8428C228.425 35.1441 225.855 37.746 221.552 37.746ZM221.552 24.1831C217.37 24.1831 214.873 26.6722 214.873 30.8428C214.873 35.0134 217.307 37.5384 221.552 37.5384C225.797 37.5384 228.231 35.098 228.231 30.8428C228.231 26.5876 225.734 24.1831 221.552 24.1831Z" fill="black"/>
<path d="M221.552 48.8992C217.777 48.8992 212.342 48.2635 207.879 45.2387C203.185 42.0576 200.705 37.0795 200.705 30.8427C200.705 24.606 203.188 19.6536 207.881 16.475C212.344 13.4553 217.777 12.8196 221.552 12.8196C225.327 12.8196 230.762 13.4527 235.235 16.4698C239.945 19.6484 242.433 24.6163 242.433 30.8402C242.433 37.0641 239.945 42.0576 235.237 45.2413C230.767 48.2661 225.327 48.8992 221.552 48.8992ZM231.695 25.475C232.403 27.0336 232.786 28.8407 232.786 30.8402C232.786 32.8396 232.401 34.6776 231.686 36.2464C232.941 34.916 233.516 33.1908 233.516 30.8402C233.516 28.4896 232.946 26.7952 231.695 25.475ZM211.384 25.5263C210.175 26.8413 209.622 28.5408 209.622 30.8427C209.622 33.1447 210.179 34.8775 211.394 36.1977C210.693 34.6391 210.315 32.8345 210.315 30.8427C210.315 28.851 210.691 27.0746 211.384 25.5263ZM221.552 28.792C220.672 28.792 219.957 28.9817 219.637 29.3021C219.288 29.6508 219.234 30.4172 219.234 30.8402C219.234 31.6092 219.375 32.1911 219.622 32.4372C219.925 32.7422 220.648 32.9242 221.552 32.9242C222.456 32.9242 223.179 32.7422 223.482 32.4372C223.729 32.1911 223.87 31.6066 223.87 30.8402C223.87 30.4147 223.816 29.6508 223.467 29.3021C223.147 28.9843 222.432 28.792 221.552 28.792Z" fill="black"/>
<path d="M226.759 27.6309H218.034V36.8565H226.759V27.6309Z" fill="white"/>
<path d="M133.217 43.6364H108.047V18.0461H117.556V37.0562H133.217V43.6364Z" fill="white"/>
<path d="M136.955 47.5893H104.309V14.0935H121.294V33.1036H136.955V47.5893ZM111.783 39.6838H113.815V21.999H111.783V39.6838Z" fill="white"/>
<path d="M133.314 43.739H107.948V17.9436H117.65V36.9537H133.311V43.739H133.314ZM108.144 43.5339H133.12V37.1613H117.459V18.1512H108.147V43.5339H108.144Z" fill="black"/>
<path d="M137.052 47.6918H104.21V13.991H121.388V33.001H137.05V47.6918H137.052ZM111.883 39.5812H113.718V22.1041H111.883V39.5812Z" fill="white"/>
<path d="M157.821 40.0169H147.035L145.687 43.6364H135.835L147.038 18.0461H157.824L169.026 43.6364H159.174L157.826 40.0169H157.821ZM155.331 33.4367L152.427 25.6133L149.523 33.4367H155.331Z" fill="white"/>
<path d="M174.872 47.5893H156.624L155.276 43.9698H149.579L148.231 47.5893H129.983L144.645 14.0935H160.209L174.872 47.5893ZM161.715 39.6838H163.174L155.433 21.999H155.104L160.326 36.0643H160.369L161.717 39.6838H161.715ZM141.68 39.6838H143.14L144.487 36.0643H144.531L149.753 21.999H149.423L141.683 39.6838H141.68Z" fill="white"/>
<path d="M169.174 43.739H159.101L157.753 40.1195H147.098L145.751 43.739H135.677L146.97 17.9436H157.882L169.174 43.739ZM159.235 43.5339H168.869L157.758 18.1512H147.096L135.985 43.5339H145.62L146.968 39.9144H157.887L159.235 43.5339ZM155.475 33.5392H149.38L152.427 25.3313L155.475 33.5392ZM149.666 33.3342H155.188L152.427 25.8978L149.666 33.3342Z" fill="black"/>
<path d="M175.024 47.6918H156.556L155.208 44.0723H149.644L148.296 47.6918H129.828L144.58 13.991H160.27L175.022 47.6918H175.024ZM161.78 39.5812H163.019L155.368 22.1041H155.242L160.386 35.9643H160.43L161.778 39.5838H161.78V39.5812ZM141.833 39.5812H143.072L144.42 35.9617H144.463L149.608 22.1015H149.482L141.83 39.5787H141.833V39.5812Z" fill="white"/>
<path d="M201.857 36.1436C201.857 42.2112 197.949 43.6364 190.171 43.6364H172.331V18.0461H190.93C196.947 18.0461 200.957 19.0689 200.957 24.5905C200.957 27.6973 199.263 29.3071 196.635 30.1479V30.2581C199.748 31.063 201.857 32.7805 201.857 36.1436ZM181.837 24.2982V27.7332H189.374C191.136 27.7332 191.655 27.0385 191.655 25.9414C191.655 24.8442 191.136 24.2957 189.374 24.2957H181.837V24.2982ZM192.244 35.449C192.244 34.2416 191.658 33.6572 189.788 33.6572H181.837V37.4228H189.788C191.725 37.4228 192.244 36.6563 192.244 35.449Z" fill="white"/>
<path d="M190.171 47.5893H168.593V14.0935H190.93C193.866 14.0935 197.229 14.2883 199.898 15.7264C202.087 16.9055 204.696 19.4023 204.696 24.5906C204.696 25.9748 204.448 27.9255 203.353 29.7507C205.21 31.8834 205.593 34.416 205.593 36.1412C205.593 40.5912 203.949 43.7852 200.708 45.6411C198.322 47.0074 195.17 47.5893 190.169 47.5893H190.171ZM176.069 39.6838H178.101V21.999H176.069V39.6838ZM195.854 34.1238C195.941 34.5621 195.983 35.0056 195.983 35.4465C195.983 37.3485 195.316 38.6174 194.625 39.4249C195.602 39.2788 196.521 39.0481 197.151 38.6892C197.583 38.4431 198.118 38.1355 198.118 36.1437C198.118 35.4824 198.118 34.7339 195.854 34.1264V34.1238ZM194.036 22.1451C194.695 22.8859 195.396 24.1035 195.396 25.944C195.396 26.1004 195.391 26.2619 195.379 26.4208L195.553 26.3644C197.219 25.8312 197.219 25.3365 197.219 24.5906C197.219 23.1576 196.855 22.9603 196.501 22.7706C195.89 22.4399 194.969 22.2528 194.036 22.1451Z" fill="white"/>
<path d="M190.171 43.739H172.234V17.9436H190.933C197.183 17.9436 201.057 19.0561 201.057 24.5905C201.057 27.4025 199.668 29.2379 196.814 30.1966C200.274 31.1348 201.956 33.0804 201.956 36.1411C201.956 42.4957 197.636 43.739 190.171 43.739ZM172.428 43.5339H190.171C199.864 43.5339 201.76 40.8244 201.76 36.1436C201.76 33.1445 200.077 31.2527 196.613 30.3581L196.538 30.3376V30.071L196.608 30.0479C199.51 29.12 200.86 27.3846 200.86 24.5905C200.86 19.2279 197.061 18.1487 190.93 18.1487H172.428V43.5313V43.5339ZM189.791 37.5253H181.742V33.5546H189.791C191.604 33.5546 192.344 34.1032 192.344 35.449C192.344 36.905 191.58 37.5253 189.791 37.5253ZM181.936 37.3202H189.791C191.864 37.3202 192.147 36.4205 192.147 35.449C192.147 34.4057 191.752 33.7623 189.791 33.7623H181.936V37.3202ZM189.374 27.8383H181.74V24.1957H189.374C191.042 24.1957 191.755 24.7186 191.755 25.9439C191.755 27.2538 191.02 27.8383 189.374 27.8383ZM181.936 27.6306H189.376C191.301 27.6306 191.561 26.777 191.561 25.9414C191.561 25.016 191.19 24.4008 189.376 24.4008H181.936V27.6306Z" fill="black"/>
<path d="M190.171 47.6918H168.496V13.991H190.933C195.19 13.991 197.924 14.4985 200.075 15.6905C202.228 16.885 204.795 19.3971 204.795 24.5906C204.795 26.5516 204.344 28.2844 203.481 29.7404C205.316 31.886 205.694 34.4186 205.694 36.1412C205.694 47.6918 194.816 47.6918 190.174 47.6918H190.171ZM176.166 39.5812H178.001V22.1041H176.166V39.5812ZM195.966 34.2622C196.063 34.7928 196.08 35.2235 196.08 35.4491C196.08 37.2101 195.507 38.438 194.896 39.248C196.37 38.9865 197.093 38.6277 197.437 38.3688C197.67 38.1944 198.019 37.933 198.019 36.1437C198.019 35.5337 198.019 34.8441 195.966 34.2622ZM194.281 22.2784C195.069 23.255 195.493 24.5188 195.493 25.944C195.493 26.0543 195.49 26.167 195.486 26.2798L195.522 26.267C197.122 25.7543 197.122 25.3416 197.122 24.5906C197.122 23.2217 196.807 23.05 196.475 22.868C195.929 22.5681 195.122 22.3861 194.281 22.2758V22.2784Z" fill="white"/>
<path d="M237.974 30.8424C237.974 40.8601 229.746 44.1848 221.552 44.1848C213.358 44.1848 205.164 40.8576 205.164 30.8424C205.164 20.8273 213.358 17.5359 221.552 17.5359C229.746 17.5359 237.974 20.8632 237.974 30.8424ZM228.328 30.8424C228.328 26.7487 225.976 24.0802 221.552 24.0802C217.128 24.0802 214.776 26.7487 214.776 30.8424C214.776 34.9361 217.128 37.6431 221.552 37.6431C225.976 37.6431 228.328 34.9746 228.328 30.8424Z" fill="white"/>
<path d="M221.552 48.1377C209.137 48.1377 201.425 41.5113 201.425 30.8425C201.425 20.1737 209.137 13.5833 221.552 13.5833C233.967 13.5833 241.713 20.1968 241.713 30.8425C241.713 41.4883 233.986 48.1377 221.552 48.1377ZM228.791 22.7166C230.866 24.6032 232.066 27.423 232.066 30.84C232.066 34.257 230.859 37.11 228.776 39.0043C229.533 38.7019 230.219 38.343 230.823 37.938C233.152 36.3615 234.236 34.1083 234.236 30.84C234.236 27.5716 233.152 25.3466 230.825 23.7753C230.226 23.3703 229.543 23.0165 228.791 22.714V22.7166ZM214.303 22.7243C213.561 23.0242 212.89 23.3754 212.298 23.7753C209.981 25.3441 208.899 27.5896 208.899 30.8425C208.899 34.0955 209.981 36.3692 212.301 37.9431C212.895 38.3456 213.571 38.6993 214.315 38.9992C212.238 37.1049 211.033 34.2749 211.033 30.8425C211.033 27.4102 212.23 24.6135 214.301 22.7268H214.303V22.7243ZM221.552 28.0305C219.021 28.0305 218.514 29.1046 218.514 30.84C218.514 32.5754 219.023 33.6879 221.552 33.6879C224.081 33.6879 224.59 32.5984 224.59 30.84C224.59 28.4996 223.426 28.0305 221.552 28.0305Z" fill="white"/>
<path d="M221.552 44.2875C218.362 44.2875 213.806 43.7799 210.233 41.355C206.805 39.03 205.067 35.4925 205.067 30.84C205.067 26.1874 206.805 22.6782 210.233 20.3583C213.809 17.9385 218.362 17.4309 221.552 17.4309C224.742 17.4309 229.303 17.9385 232.888 20.3583C236.328 22.6782 238.071 26.2054 238.071 30.84C238.071 35.4746 236.328 39.03 232.888 41.355C229.305 43.7774 224.745 44.2875 221.552 44.2875ZM221.552 17.6385C218.388 17.6385 213.874 18.141 210.337 20.5326C206.97 22.8115 205.26 26.2797 205.26 30.84C205.26 35.4002 206.97 38.8967 210.337 41.1807C213.872 43.5774 218.386 44.0799 221.552 44.0799C224.718 44.0799 229.239 43.5774 232.784 41.1807C236.163 38.8941 237.877 35.4156 237.877 30.84C237.877 26.2643 236.163 22.8115 232.784 20.5326C229.237 18.141 224.718 17.6385 221.552 17.6385ZM221.552 37.7457C217.249 37.7457 214.679 35.1644 214.679 30.8425C214.679 26.5207 217.249 23.9752 221.552 23.9752C225.855 23.9752 228.425 26.5412 228.425 30.8425C228.425 35.1439 225.855 37.7457 221.552 37.7457ZM221.552 24.1829C217.37 24.1829 214.873 26.6719 214.873 30.8425C214.873 35.0132 217.307 37.5381 221.552 37.5381C225.797 37.5381 228.231 35.0978 228.231 30.8425C228.231 26.5873 225.734 24.1829 221.552 24.1829Z" fill="black"/>
<path d="M221.552 48.2403C217.86 48.2403 212.55 47.6226 208.213 44.6824C203.709 41.6268 201.326 36.841 201.326 30.8401C201.326 24.8392 203.709 20.0764 208.216 17.0286C212.553 14.0935 217.86 13.4783 221.55 13.4783C225.239 13.4783 230.551 14.0935 234.898 17.026C239.419 20.0764 241.81 24.8546 241.81 30.8401C241.81 36.8256 239.422 41.6294 234.903 44.6849C230.558 47.6226 225.244 48.2403 221.552 48.2403ZM229.249 23.0166C231.101 24.911 232.163 27.6128 232.163 30.8401C232.163 34.0674 231.097 36.8025 229.235 38.7046C229.768 38.461 230.284 38.1791 230.769 37.8509C233.068 36.2975 234.139 34.0674 234.139 30.8401C234.139 27.6128 233.07 25.4134 230.772 23.8625C230.289 23.537 229.78 23.2576 229.249 23.0141V23.0166ZM213.843 23.0269C213.324 23.2653 212.824 23.5421 212.352 23.8625C210.063 25.4108 208.999 27.6282 208.999 30.8426C208.999 34.0571 210.066 36.3027 212.356 37.8561C212.832 38.1791 213.336 38.4559 213.86 38.6969C212.005 36.7948 210.941 34.0828 210.941 30.8426C210.941 27.6025 211.998 24.9238 213.845 23.0294L213.843 23.0269ZM221.552 28.1331C218.839 28.1331 218.611 29.5302 218.611 30.8401C218.611 32.8652 219.38 33.5829 221.552 33.5829C223.724 33.5829 224.493 32.8652 224.493 30.8401C224.493 29.5302 224.265 28.1331 221.552 28.1331Z" fill="white"/>
<path d="M133.217 43.6364H108.047V18.0461H117.556V37.0562H133.217V43.6364Z" fill="white"/>
<path d="M133.34 43.7698H107.921V17.9155H117.679V36.9256H133.34V43.7698ZM108.171 43.5058H133.091V37.1896H117.43V18.1796H108.171V43.5058Z" fill="black"/>
<path d="M133.314 43.739H107.948V17.9436H117.65V36.9537H133.311V43.739H133.314ZM108.144 43.5339H133.12V37.1613H117.459V18.1512H108.147V43.5339H108.144Z" fill="black"/>
<path d="M133.437 43.8724H107.824V17.813H117.776V36.8231H133.437V43.8724ZM108.268 43.4033H132.994V37.2922H117.333V18.2821H108.27V43.4033H108.268Z" fill="black"/>
<path d="M157.821 40.0169H147.035L145.688 43.6364H135.835L147.038 18.0461H157.824L169.027 43.6364H159.174L157.826 40.0169H157.821ZM155.331 33.4367L152.427 25.6133L149.523 33.4367H155.331Z" fill="white"/>
<path d="M169.218 43.7698H159.084L157.736 40.1503H147.12L145.772 43.7698H135.639L146.955 17.9155H157.901L169.218 43.7698ZM159.254 43.5058H168.828L157.741 18.1796H147.113L136.027 43.5058H145.6L146.948 39.8863H157.904L159.252 43.5058H159.254ZM155.513 33.5701H149.339L152.425 25.2545L155.511 33.5701H155.513ZM149.705 33.3061H155.147L152.427 25.9748L149.705 33.3061Z" fill="black"/>
<path d="M169.174 43.739H159.101L157.753 40.1195H147.098L145.751 43.739H135.677L146.97 17.9436H157.882L169.174 43.739ZM159.235 43.5339H168.869L157.758 18.1512H147.096L135.985 43.5339H145.62L146.968 39.9144H157.887L159.235 43.5339ZM155.475 33.5392H149.38L152.427 25.3313L155.475 33.5392ZM149.666 33.3342H155.188L152.427 25.8978L149.666 33.3342Z" fill="black"/>
<path d="M169.371 43.8724H159.019L157.671 40.2529H147.186L145.838 43.8724H135.486L146.892 17.813H157.964L169.371 43.8724ZM159.319 43.4033H168.675L157.678 18.2821H147.176L136.179 43.4033H145.535L146.883 39.7838H157.972L159.319 43.4033ZM155.656 33.6727H149.195L152.425 24.9725L155.654 33.6727H155.656ZM149.848 33.2036H155.004L152.427 26.2593L149.85 33.2036H149.848Z" fill="black"/>
<path d="M201.857 36.1436C201.857 42.2112 197.949 43.6364 190.171 43.6364H172.331V18.0461H190.93C196.947 18.0461 200.957 19.0689 200.957 24.5905C200.957 27.6973 199.263 29.3071 196.635 30.1479V30.2581C199.748 31.063 201.857 32.7805 201.857 36.1436ZM181.837 24.2982V27.7332H189.374C191.136 27.7332 191.655 27.0385 191.655 25.9414C191.655 24.8442 191.136 24.2957 189.374 24.2957H181.837V24.2982ZM192.244 35.449C192.244 34.2416 191.658 33.6572 189.788 33.6572H181.837V37.4228H189.788C191.725 37.4228 192.244 36.6563 192.244 35.449Z" fill="white"/>
<path d="M190.171 43.7698H172.207V17.9155H190.933C197.2 17.9155 201.083 19.0332 201.083 24.5906C201.083 27.3872 199.718 29.2226 196.911 30.1941C200.322 31.1452 201.983 33.0933 201.983 36.1438C201.983 42.5215 197.653 43.7698 190.171 43.7698ZM172.454 43.5058H190.169C198.705 43.5058 201.731 41.5781 201.731 36.1438C201.731 33.16 200.053 31.2785 196.606 30.3864L196.511 30.3608V30.0506L196.598 30.0224C199.486 29.097 200.831 27.3719 200.831 24.5931C200.831 19.2536 197.042 18.1821 190.93 18.1821H172.454V43.5084V43.5058ZM189.791 37.5536H181.713V33.524H189.791C191.624 33.524 192.37 34.0802 192.37 35.4465C192.37 36.9025 191.575 37.5536 189.791 37.5536ZM181.963 37.2896H189.791C191.839 37.2896 192.121 36.4052 192.121 35.4465C192.121 34.4212 191.73 33.788 189.791 33.788H181.963V37.2896ZM189.374 27.8666H181.713V24.1676H189.374C191.061 24.1676 191.781 24.6982 191.781 25.9441C191.781 27.2744 191.039 27.8666 189.374 27.8666ZM181.963 27.6026H189.376C191.277 27.6026 191.534 26.7643 191.534 25.9441C191.534 25.0366 191.168 24.4317 189.376 24.4317H181.963V27.6051V27.6026Z" fill="black"/>
<path d="M190.171 43.739H172.234V17.9436H190.933C197.183 17.9436 201.057 19.0561 201.057 24.5905C201.057 27.4025 199.668 29.2379 196.814 30.1966C200.274 31.1348 201.956 33.0804 201.956 36.1411C201.956 42.4957 197.636 43.739 190.171 43.739ZM172.428 43.5339H190.171C199.864 43.5339 201.76 40.8244 201.76 36.1436C201.76 33.1445 200.077 31.2527 196.613 30.3581L196.538 30.3376V30.071L196.608 30.0479C199.51 29.12 200.86 27.3846 200.86 24.5905C200.86 19.2279 197.061 18.1487 190.93 18.1487H172.428V43.5313V43.5339ZM189.791 37.5253H181.742V33.5546H189.791C191.604 33.5546 192.344 34.1032 192.344 35.449C192.344 36.905 191.58 37.5253 189.791 37.5253ZM181.936 37.3202H189.791C191.864 37.3202 192.147 36.4205 192.147 35.449C192.147 34.4057 191.752 33.7623 189.791 33.7623H181.936V37.3202ZM189.374 27.8383H181.74V24.1957H189.374C191.042 24.1957 191.755 24.7186 191.755 25.9439C191.755 27.2538 191.02 27.8383 189.374 27.8383ZM181.936 27.6306H189.376C191.301 27.6306 191.561 26.777 191.561 25.9414C191.561 25.016 191.19 24.4008 189.376 24.4008H181.936V27.6306Z" fill="black"/>
<path d="M190.171 43.8724H172.11V17.813H190.933C197.26 17.813 201.18 18.946 201.18 24.5906C201.18 27.336 199.891 29.1713 197.238 30.1839C200.494 31.1785 202.077 33.1318 202.077 36.1438C202.077 42.6086 197.711 43.8724 190.169 43.8724H190.171ZM172.551 43.4033H190.169C199.757 43.4033 201.634 40.7425 201.634 36.1438C201.634 33.2164 199.98 31.3656 196.581 30.4864L196.412 30.4428V30.2275L196.358 30.2121L196.412 30.1941V29.9737L196.569 29.9224C199.411 29.0124 200.734 27.318 200.734 24.5906C200.734 19.3382 196.984 18.2821 190.93 18.2821H172.551V43.4033ZM189.791 37.6562H181.616V33.4214H189.791C191.667 33.4214 192.467 34.0264 192.467 35.4465C192.467 36.9743 191.641 37.6562 189.791 37.6562ZM182.06 37.1871H189.791C191.852 37.1871 192.024 36.2899 192.024 35.4465C192.024 34.4622 191.658 33.8905 189.791 33.8905H182.06V37.1871ZM189.374 27.9691H181.614V24.0625H189.374C191.105 24.0625 191.878 24.6418 191.878 25.9415C191.878 27.3231 191.083 27.9666 189.374 27.9666V27.9691ZM182.06 27.5H189.374C191.185 27.5 191.435 26.7515 191.435 25.944C191.435 25.2314 191.275 24.5342 189.374 24.5342H182.06V27.5Z" fill="black"/>
<path d="M237.974 30.8427C237.974 40.8604 229.746 44.1851 221.552 44.1851C213.358 44.1851 205.164 40.8578 205.164 30.8427C205.164 20.8275 213.358 17.5361 221.552 17.5361C229.746 17.5361 237.974 20.8634 237.974 30.8427ZM228.328 30.8427C228.328 26.7489 225.976 24.0805 221.552 24.0805C217.128 24.0805 214.776 26.7489 214.776 30.8427C214.776 34.9364 217.128 37.6433 221.552 37.6433C225.976 37.6433 228.328 34.9748 228.328 30.8427Z" fill="white"/>
<path d="M221.552 44.3184C218.357 44.3184 213.797 43.8083 210.218 41.3807C206.783 39.0506 205.04 35.5055 205.04 30.8427C205.04 26.1799 206.783 22.6603 210.218 20.3353C213.799 17.9129 218.359 17.4028 221.552 17.4028C224.745 17.4028 229.312 17.9104 232.903 20.3353C236.35 22.6629 238.098 26.1978 238.098 30.8427C238.098 35.4875 236.35 39.0506 232.903 41.3807C229.315 43.8083 224.75 44.3158 221.552 44.3158V44.3184ZM221.552 17.6669C218.391 17.6669 213.881 18.1693 210.352 20.5558C206.991 22.8295 205.287 26.2901 205.287 30.8401C205.287 35.3901 206.991 38.8789 210.352 41.1577C213.879 43.5494 218.388 44.0518 221.552 44.0518C224.716 44.0518 229.23 43.5494 232.769 41.1577C236.142 38.8789 237.851 35.4055 237.851 30.8401C237.851 26.2747 236.142 22.8295 232.769 20.5558C229.23 18.1667 224.716 17.6669 221.552 17.6669ZM221.552 37.7741C217.232 37.7741 214.65 35.1825 214.65 30.8427C214.65 26.5029 217.229 23.9472 221.552 23.9472C225.875 23.9472 228.454 26.5234 228.454 30.8427C228.454 35.162 225.875 37.7741 221.552 37.7741ZM221.552 24.2112C217.324 24.2112 214.9 26.6285 214.9 30.8427C214.9 35.0569 217.324 37.51 221.552 37.51C225.78 37.51 228.204 35.0799 228.204 30.8427C228.204 26.6054 225.78 24.2112 221.552 24.2112Z" fill="black"/>
<path d="M221.552 44.2875C218.362 44.2875 213.806 43.7799 210.233 41.355C206.805 39.03 205.067 35.4925 205.067 30.84C205.067 26.1874 206.805 22.6782 210.233 20.3583C213.809 17.9385 218.362 17.4309 221.552 17.4309C224.742 17.4309 229.303 17.9385 232.888 20.3583C236.328 22.6782 238.071 26.2054 238.071 30.84C238.071 35.4746 236.328 39.03 232.888 41.355C229.305 43.7774 224.745 44.2875 221.552 44.2875ZM221.552 17.6385C218.388 17.6385 213.874 18.141 210.337 20.5326C206.97 22.8115 205.26 26.2797 205.26 30.84C205.26 35.4002 206.97 38.8967 210.337 41.1807C213.872 43.5774 218.386 44.0799 221.552 44.0799C224.718 44.0799 229.239 43.5774 232.784 41.1807C236.163 38.8941 237.877 35.4156 237.877 30.84C237.877 26.2643 236.163 22.8115 232.784 20.5326C229.237 18.141 224.718 17.6385 221.552 17.6385ZM221.552 37.7457C217.249 37.7457 214.679 35.1644 214.679 30.8425C214.679 26.5207 217.249 23.9752 221.552 23.9752C225.855 23.9752 228.425 26.5412 228.425 30.8425C228.425 35.1439 225.855 37.7457 221.552 37.7457ZM221.552 24.1829C217.37 24.1829 214.873 26.6719 214.873 30.8425C214.873 35.0132 217.307 37.5381 221.552 37.5381C225.797 37.5381 228.231 35.0978 228.231 30.8425C228.231 26.5873 225.734 24.1829 221.552 24.1829Z" fill="black"/>
<path d="M221.552 44.4209C218.345 44.4209 213.765 43.9082 210.165 41.4679C206.698 39.1173 204.94 35.5413 204.94 30.8427C204.94 26.144 206.698 22.5937 210.165 20.2482C213.765 17.813 218.345 17.3003 221.552 17.3003C224.759 17.3003 229.344 17.8104 232.956 20.2482C236.435 22.5937 238.197 26.1594 238.197 30.8427C238.197 35.526 236.435 39.1173 232.956 41.4679C229.346 43.9082 224.762 44.4209 221.552 44.4209ZM221.552 17.7694C218.405 17.7694 213.915 18.2693 210.405 20.6429C207.074 22.8962 205.387 26.326 205.387 30.8401C205.387 35.3542 207.076 38.8122 210.405 41.0706C213.913 43.4494 218.403 43.9492 221.552 43.9492C224.701 43.9492 229.198 43.4494 232.716 41.0706C236.057 38.8097 237.751 35.3696 237.751 30.8401C237.751 26.3106 236.057 22.8962 232.716 20.6429C229.196 18.2667 224.701 17.7694 221.552 17.7694ZM221.552 37.8766C217.169 37.8766 214.553 35.2466 214.553 30.8427C214.553 26.4388 217.169 23.8446 221.552 23.8446C225.935 23.8446 228.551 26.4618 228.551 30.8427C228.551 35.2235 225.935 37.8766 221.552 37.8766ZM221.552 24.3137C217.448 24.3137 214.997 26.7541 214.997 30.8427C214.997 34.9313 217.385 37.4075 221.552 37.4075C225.719 37.4075 228.107 35.0159 228.107 30.8427C228.107 26.6695 225.656 24.3137 221.552 24.3137Z" fill="black"/>
<path d="M38.0644 35.1465L37.2401 37.2433L41.2111 39.3581L40.0984 36.1616L38.0644 35.1465Z" fill="white"/>
</g>
<defs>
<clipPath id="clip0_752_23236">
<rect width="243" height="55" fill="white"/>
</clipPath>
</defs>
</svg>
