<svg width="27" height="27" viewBox="0 0 27 27" fill="none" xmlns="http://www.w3.org/2000/svg">
<g clip-path="url(#clip0_1026_8626)">
<path fill-rule="evenodd" clip-rule="evenodd" d="M12.01 0.228027C9.63482 0.228779 7.31318 0.933794 5.33864 2.25393C3.3641 3.57406 1.82534 5.45004 0.916908 7.64465C0.00848051 9.83926 -0.228816 12.254 0.235022 14.5834C0.698861 16.9129 1.843 19.0525 3.52279 20.7318C5.20257 22.411 7.34256 23.5545 9.67217 24.0176C12.0018 24.4807 14.4164 24.2426 16.6107 23.3335C18.8051 22.4244 20.6805 20.885 22.0001 18.9101C23.3196 16.9351 24.0238 14.6133 24.0238 12.2381C24.0223 9.0526 22.756 5.99811 20.5032 3.74601C18.2504 1.49391 15.1955 0.228531 12.01 0.228027ZM12.01 2.1279C14.0096 2.1279 15.9643 2.72085 17.6269 3.83177C19.2895 4.94268 20.5854 6.52168 21.3506 8.36906C22.1158 10.2165 22.316 12.2493 21.9259 14.2104C21.5358 16.1716 20.5729 17.9731 19.159 19.387C17.745 20.8009 15.9436 21.7638 13.9824 22.1539C12.0212 22.5441 9.98842 22.3438 8.14103 21.5786C6.29364 20.8134 4.71465 19.5176 3.60373 17.855C2.49281 16.1924 1.89986 14.2377 1.89986 12.2381C1.90112 9.55706 2.9667 6.98623 4.86245 5.09048C6.75819 3.19473 9.32902 2.12916 12.01 2.1279Z" fill="black"/>
<path fill-rule="evenodd" clip-rule="evenodd" d="M26.7226 25.1562L20.7608 19.1944C20.6731 19.1037 20.5683 19.0313 20.4524 18.9815C20.3365 18.9318 20.2119 18.9056 20.0858 18.9045C19.9596 18.9034 19.8345 18.9274 19.7178 18.9752C19.601 19.0229 19.495 19.0935 19.4058 19.1826C19.3166 19.2718 19.2461 19.3779 19.1983 19.4946C19.1505 19.6114 19.1265 19.7365 19.1276 19.8626C19.1287 19.9887 19.1549 20.1134 19.2047 20.2293C19.2545 20.3452 19.3268 20.45 19.4176 20.5376L25.3794 26.4966C25.467 26.5873 25.5718 26.6597 25.6877 26.7095C25.8036 26.7592 25.9282 26.7854 26.0544 26.7865C26.1805 26.7876 26.3056 26.7636 26.4223 26.7158C26.5391 26.6681 26.6452 26.5975 26.7343 26.5083C26.8235 26.4192 26.8941 26.3131 26.9418 26.1963C26.9896 26.0796 27.0136 25.9545 27.0125 25.8284C27.0114 25.7023 26.9852 25.5776 26.9355 25.4617C26.8857 25.3458 26.8133 25.241 26.7226 25.1534V25.1562Z" fill="black"/>
</g>
<defs>
<clipPath id="clip0_1026_8626">
<rect width="27" height="27" fill="white"/>
</clipPath>
</defs>
</svg>
