<svg width="18" height="19" viewBox="0 0 18 19" fill="none" xmlns="http://www.w3.org/2000/svg">
<path d="M2.88029 13.9115H1.07722C0.501083 13.9115 0.0299072 13.4403 0.0299072 12.8642V8.82417C0.0299072 8.24803 0.501083 7.77686 1.07722 7.77686H2.87796C3.4541 7.77686 3.92527 8.24803 3.92527 8.82417V12.8642C3.92761 13.4403 3.45643 13.9115 2.88029 13.9115ZM8.01424 18.6746H7.69002C7.21651 18.6746 6.82697 18.2873 6.82697 17.8115V17.4873C6.82697 17.0138 7.21418 16.6242 7.69002 16.6242H8.01424C8.48775 16.6242 8.87729 17.0114 8.87729 17.4873V17.8115C8.87729 18.2873 8.49008 18.6746 8.01424 18.6746Z" fill="black"/>
<path d="M9.02174 18.0377C8.78149 18.0377 8.58789 17.8441 8.58789 17.6038C8.58789 17.3635 8.78149 17.1699 9.02174 17.1699C11.5246 17.1699 14.1977 15.7308 15.8328 13.5032C15.9751 13.3096 16.2457 13.2676 16.4393 13.4099C16.6329 13.5521 16.6749 13.8227 16.5326 14.0163C14.7388 16.4608 11.7905 18.0377 9.02174 18.0377ZM0.435605 9.85505C0.200017 9.85505 0.00641452 9.66611 0.00174942 9.42819C-0.000583138 9.29757 -0.000583138 9.16694 0.00174942 9.03865V9.01766V8.98734C0.0600633 6.57547 0.97909 4.35022 2.61421 2.68244C4.31231 0.951683 6.58889 0 9.02174 0C13.9738 0 17.7338 3.76475 17.9648 8.95468C17.9764 9.19493 17.7898 9.39787 17.5496 9.4072C17.3163 9.41186 17.1064 9.23225 17.097 8.992C16.8871 4.28257 13.4932 0.867711 9.02174 0.867711C6.82214 0.867711 4.76716 1.72842 3.23467 3.29124C1.7465 4.80973 0.913778 6.84139 0.86946 9.04798V9.42119C0.86946 9.65911 0.67819 9.85272 0.44027 9.85505H0.435605Z" fill="black"/>
<path d="M16.9503 13.9115H15.1566C14.5781 13.9115 14.1046 13.438 14.1046 12.8595V8.82884C14.1046 8.25036 14.5781 7.77686 15.1566 7.77686H16.948C17.5265 7.77686 18 8.25036 18 8.82884V12.8595C18.0023 13.438 17.5288 13.9115 16.9503 13.9115Z" fill="black"/>
</svg>
